<svg width="40" height="40" viewBox="0 0 40 40" fill="none" xmlns="http://www.w3.org/2000/svg">
<g clip-path="url(#clip0_265_409)">
<rect width="40" height="40" rx="8" fill="#00005B"/>
<path d="M16.0666 23.8332H9.86662L8.59996 27.7665C8.56662 27.9165 8.43329 28.0165 8.28329 27.9999H5.14996C4.96662 27.9999 4.91662 27.8999 4.96662 27.6999L10.3333 12.3165C10.3833 12.1499 10.4333 11.9999 10.5 11.7999C10.5666 11.4499 10.6 11.0832 10.6 10.7165C10.5833 10.6332 10.65 10.5499 10.7333 10.5332H10.7833H15.05C15.1666 10.5332 15.25 10.5832 15.2666 10.6665L21.35 27.6665C21.4 27.8499 21.35 27.9332 21.1833 27.9332H17.7C17.5833 27.9499 17.4666 27.8665 17.4333 27.7499L16.0666 23.7499V23.8332ZM10.8333 20.5165H15.0666C14.9666 20.1665 14.8333 19.7499 14.6833 19.3165C14.5333 18.8665 14.3833 18.3832 14.2333 17.8832C14.0666 17.3665 13.9166 16.8665 13.75 16.3499C13.5833 15.8332 13.4333 15.3499 13.3 14.8665C13.1666 14.3999 13.05 13.9665 12.9333 13.5665H12.9C12.75 14.2832 12.5666 14.9999 12.3333 15.7165C12.0833 16.5165 11.8333 17.3499 11.5666 18.1832C11.35 19.0332 11.0833 19.8165 10.8333 20.5165Z" fill="#9999FF"/>
<path d="M31.1667 22.3333H25.8834C25.95 22.85 26.1167 23.3666 26.4 23.8166C26.7 24.2666 27.1167 24.6166 27.6167 24.8166C28.2834 25.1 29.0167 25.25 29.75 25.2333C30.3334 25.2166 30.9167 25.1666 31.4834 25.05C32 24.9833 32.5 24.85 32.9667 24.6666C33.05 24.6 33.1 24.6333 33.1 24.8V27.35C33.1 27.4166 33.0834 27.4833 33.0667 27.55C33.0334 27.6 33 27.6333 32.95 27.6666C32.4167 27.9 31.8667 28.0666 31.2834 28.1666C30.5 28.3166 29.7167 28.3833 28.9167 28.3666C27.65 28.3666 26.5834 28.1666 25.7167 27.7833C24.9 27.4333 24.1834 26.8833 23.6167 26.2C23.0834 25.55 22.7 24.8166 22.4667 24.0166C22.2334 23.2333 22.1167 22.4166 22.1167 21.5833C22.1167 20.6833 22.25 19.8 22.5334 18.9333C22.8 18.1 23.2167 17.3333 23.7834 16.65C24.3334 15.9833 25.0167 15.45 25.8 15.0666C26.5834 14.6833 27.5167 14.55 28.5834 14.55C29.4667 14.5333 30.35 14.7 31.1667 15.0666C31.85 15.3666 32.45 15.8166 32.9167 16.4C33.35 16.9666 33.7 17.6 33.9167 18.3C34.1334 18.9666 34.2334 19.65 34.2334 20.3333C34.2334 20.7333 34.2167 21.0833 34.2 21.4C34.1667 21.7166 34.15 21.95 34.1334 22.1C34.1167 22.2166 34.0167 22.3166 33.9 22.3166C33.8 22.3166 33.6167 22.3333 33.35 22.35C33.0834 22.3833 32.7667 22.4 32.3834 22.4C32 22.4 31.6 22.3333 31.1667 22.3333ZM25.8834 19.9H29.4C29.8334 19.9 30.15 19.9 30.35 19.8833C30.4834 19.8666 30.6167 19.8333 30.7334 19.75V19.5833C30.7334 19.3666 30.7 19.1666 30.6334 18.9666C30.3334 18.0333 29.45 17.4 28.4667 17.4333C27.55 17.3833 26.6834 17.8666 26.25 18.7C26.05 19.0833 25.9334 19.4833 25.8834 19.9Z" fill="#9999FF"/>
</g>
<defs>
<clipPath id="clip0_265_409">
<rect width="40" height="40" fill="white"/>
</clipPath>
</defs>
</svg>
