<svg width="40" height="40" viewBox="0 0 40 40" fill="none" xmlns="http://www.w3.org/2000/svg">
<g clip-path="url(#clip0_265_408)">
<path fill-rule="evenodd" clip-rule="evenodd" d="M20 19.9997C20 16.3178 22.9848 13.333 26.6667 13.333C30.3485 13.333 33.3333 16.3178 33.3333 19.9997C33.3333 23.6815 30.3485 26.6663 26.6667 26.6663C22.9848 26.6663 20 23.6815 20 19.9997Z" fill="#1ABCFE"/>
<path fill-rule="evenodd" clip-rule="evenodd" d="M6.66663 33.3337C6.66663 29.6518 9.65139 26.667 13.3333 26.667H20V33.3337C20 37.0155 17.0151 40.0003 13.3333 40.0003C9.65139 40.0003 6.66663 37.0155 6.66663 33.3337Z" fill="#0ACF83"/>
<path fill-rule="evenodd" clip-rule="evenodd" d="M20 0V13.3333H26.6667C30.3485 13.3333 33.3333 10.3485 33.3333 6.66667C33.3333 2.98477 30.3485 0 26.6667 0H20Z" fill="#FF7262"/>
<path fill-rule="evenodd" clip-rule="evenodd" d="M6.66663 6.66667C6.66663 10.3485 9.65139 13.3333 13.3333 13.3333H20V0H13.3333C9.65139 0 6.66663 2.98477 6.66663 6.66667Z" fill="#F24E1E"/>
<path fill-rule="evenodd" clip-rule="evenodd" d="M6.66663 19.9997C6.66663 23.6815 9.65139 26.6663 13.3333 26.6663H20V13.333H13.3333C9.65139 13.333 6.66663 16.3178 6.66663 19.9997Z" fill="#A259FF"/>
</g>
<defs>
<clipPath id="clip0_265_408">
<rect width="40" height="40" fill="white"/>
</clipPath>
</defs>
</svg>
