<svg width="40" height="40" viewBox="0 0 40 40" fill="none" xmlns="http://www.w3.org/2000/svg">
<path d="M16.9141 28.3203C11.7578 27.6953 8.12498 23.9844 8.12498 19.1797C8.12498 17.2266 8.82812 15.1172 10 13.7109C9.4922 12.4219 9.57033 9.68751 10.1562 8.55469C11.7187 8.35939 13.8281 9.17967 15.0781 10.3125C16.5625 9.84375 18.125 9.60939 20.0391 9.60939C21.9531 9.60939 23.5156 9.84376 24.9219 10.2734C26.1328 9.17967 28.2813 8.35939 29.8438 8.55469C30.3906 9.60939 30.4687 12.3438 29.9609 13.6719C31.2109 15.1562 31.875 17.1484 31.875 19.1797C31.875 23.9844 28.2422 27.6172 23.0078 28.2813C24.3359 29.1406 25.2344 31.0156 25.2344 33.1641V37.2266C25.2344 38.3984 26.2109 39.0625 27.3828 38.5938C34.4531 35.8984 40 28.8281 40 20.0781C40 9.02343 31.0156 9.74037e-08 19.9609 0C8.90625 -9.74037e-08 9.74041e-08 9.02343 0 20.0781C-7.64086e-08 28.75 5.5078 35.9375 12.9297 38.6328C13.9844 39.0234 15 38.3203 15 37.2656V34.1406C14.4531 34.375 13.75 34.5313 13.125 34.5313C10.5469 34.5313 9.02343 33.125 7.92967 30.5078C7.5 29.4531 7.03127 28.8281 6.13282 28.7109C5.66408 28.6719 5.5078 28.4766 5.5078 28.2422C5.5078 27.7734 6.28906 27.4219 7.07033 27.4219C8.20314 27.4219 9.17967 28.125 10.1953 29.5703C10.9766 30.7031 11.7969 31.2109 12.7734 31.2109C13.75 31.2109 14.375 30.8594 15.2734 29.9609C15.9375 29.2969 16.4453 28.7109 16.9141 28.3203Z" fill="black"/>
</svg>
