<svg width="60" height="40" viewBox="0 0 60 40" fill="none" xmlns="http://www.w3.org/2000/svg">
<path d="M36 0L32.6245 36.1108L17.9998 40L3.37482 36.1108L0 0H36Z" fill="#2163B1"/>
<path d="M29.1981 7.34277H17.9866H6.57642L7.1221 11.7035H17.9866H18.5968L17.9866 11.9544L7.51917 16.2601L7.86631 20.5226L17.9866 20.555L23.4107 20.572L23.0635 26.2555L17.9865 27.6672V27.6628L17.9449 27.6742L13.0418 26.4517L12.7442 22.9237H12.728H8.18009H8.16408L8.75938 29.7345L17.9866 32.4295V32.4247L18.0033 32.4295L27.1811 29.7836L28.3716 16.2601H17.9866H17.961L17.9866 16.2492L28.752 11.7035L29.1981 7.34277Z" fill="white"/>
<path d="M24 0.0117781C24.0195 0.2017 24.0346 0.376898 24.0496 0.552097C24.2044 2.24961 24.3547 3.9486 24.511 5.64464C24.7094 7.8015 24.9093 9.96278 25.1047 12.1182C25.27 13.932 25.4338 15.7502 25.5976 17.5655C25.784 19.6105 25.9719 21.654 26.1582 23.7004C26.322 25.5128 26.4859 27.3325 26.6512 29.1478C26.8526 31.3591 27.057 33.5675 27.2494 35.7788C27.2614 35.9217 27.308 35.982 27.4523 36.0203C32.2271 37.3394 36.999 38.6601 41.7678 39.9763C41.888 40.0086 42.0323 40.0072 42.1525 39.9763C46.9424 38.6601 51.7308 37.3424 56.5207 36.0277C56.6845 35.982 56.7356 35.9128 56.7461 35.7553C56.8483 34.523 56.9656 33.2922 57.0753 32.0614C57.1985 30.704 57.3248 29.3436 57.448 27.9832C57.5592 26.7671 57.6674 25.554 57.7802 24.3364C57.9064 22.9761 58.0296 21.6157 58.1529 20.2568C58.2611 19.0422 58.3723 17.8291 58.485 16.6115C58.6083 15.257 58.7315 13.9025 58.8548 12.5481C58.966 11.329 59.0742 10.11 59.1899 8.88803C59.3132 7.53355 59.4364 6.17907 59.5596 4.82459C59.6709 3.59084 59.7821 2.35414 59.9008 1.11892C59.9324 0.750852 59.9639 0.379843 60 0L24 0.0117781Z" fill="#E44D26"/>
<path d="M52.8896 11.7266C47.1484 11.7266 41.4101 11.7266 35.6509 11.7266C35.7861 13.2474 35.9199 14.7535 36.0521 16.2641C41.5364 16.2641 47.0041 16.2641 52.4913 16.2641C52.4508 16.5836 52.3997 16.8854 52.3711 17.1901C52.2945 17.9572 52.2208 18.7257 52.1517 19.4898C52.0254 20.8781 51.9022 22.2753 51.7789 23.6637C51.6707 24.9121 51.561 26.1532 51.4468 27.4017C51.3762 28.1894 51.2965 28.977 51.2289 29.7632C51.2168 29.8869 51.1357 29.8898 51.062 29.9119C49.1187 30.436 47.1784 30.9616 45.2351 31.4828C44.1695 31.7729 43.1055 32.0658 42.0384 32.3529C41.9903 32.3677 41.9241 32.3588 41.873 32.3426C38.8581 31.5314 35.8447 30.7172 32.8328 29.909C32.6946 29.8751 32.6916 29.7912 32.6825 29.694C32.6059 28.7459 32.5292 27.8051 32.4571 26.857C32.3564 25.585 32.2542 24.3114 32.152 23.0379C32.149 23.0056 32.149 22.9658 32.146 22.9202C33.6339 22.9202 35.1188 22.9202 36.6112 22.9202C36.6488 23.3339 36.6894 23.7476 36.7255 24.1539C36.7916 24.8753 36.8577 25.5953 36.9208 26.3211C36.9269 26.4035 36.9524 26.4359 37.0336 26.4595C38.6507 26.882 40.2649 27.3104 41.8851 27.7359C41.9422 27.7521 42.0113 27.7448 42.0699 27.73C43.6661 27.3104 45.2607 26.885 46.8598 26.4698C46.956 26.4418 46.9981 26.3991 47.0071 26.3034C47.1829 24.4572 47.3618 22.608 47.5436 20.7633C47.5436 20.7574 47.5406 20.7501 47.5376 20.7294C42.3329 20.7294 37.1252 20.7294 31.9055 20.7294C31.4952 16.267 31.0894 11.8208 30.6821 7.36133C38.2344 7.36133 45.7536 7.36133 53.3119 7.36133C53.1752 8.81592 53.0309 10.2632 52.8896 11.7266Z" fill="white"/>
</svg>
