<svg width="48" height="44" viewBox="0 0 48 44" fill="none" xmlns="http://www.w3.org/2000/svg">
<rect x="4" y="2" width="40" height="40" rx="8" fill="#001E36"/>
<path d="M13 29.7913V13.2729C13 13.1605 13.0516 13.0963 13.172 13.0963C13.4643 13.0963 13.7394 13.0963 14.1349 13.0803C14.5476 13.0642 14.9775 13.0642 15.4418 13.0482C15.9061 13.0321 16.4048 13.0321 16.9378 13.0161C17.4709 13 17.9868 13 18.5026 13C19.9127 13 21.082 13.1605 22.045 13.4976C22.9048 13.7705 23.6958 14.22 24.3492 14.814C24.8995 15.3277 25.3294 15.9537 25.6045 16.644C25.8624 17.3182 26 18.0085 26 18.7309C26 20.1114 25.6561 21.2512 24.9683 22.1501C24.2804 23.0491 23.3175 23.7233 22.1997 24.1086C21.0304 24.5099 19.7407 24.6544 18.3307 24.6544C17.918 24.6544 17.6429 24.6544 17.4709 24.6383C17.2989 24.6223 17.0582 24.6223 16.7315 24.6223V29.7753C16.7487 29.8876 16.6627 29.9839 16.5423 30C16.5251 30 16.5079 30 16.4735 30H13.2063C13.0688 30 13 29.9358 13 29.7913ZM16.7487 16.1945V21.5883C16.9894 21.6043 17.213 21.6204 17.4193 21.6204H18.3307C19.0013 21.6204 19.672 21.5241 20.3082 21.3314C20.8585 21.187 21.3399 20.882 21.7183 20.4806C22.0794 20.0793 22.2513 19.5335 22.2513 18.8272C22.2685 18.3296 22.131 17.8319 21.8558 17.3985C21.5635 16.9811 21.1508 16.6601 20.6521 16.4835C20.0159 16.2427 19.328 16.1464 18.623 16.1624C18.1759 16.1624 17.7804 16.1624 17.4537 16.1785C17.1098 16.1624 16.869 16.1785 16.7487 16.1945Z" fill="#31A8FF"/>
<path d="M35.8974 20.5312C35.3813 20.2812 34.8307 20.1094 34.2457 20C33.6091 19.875 32.9725 19.7969 32.3187 19.7969C31.9746 19.7812 31.6133 19.8281 31.2864 19.9062C31.0627 19.9531 30.8734 20.0625 30.753 20.2187C30.667 20.3437 30.6153 20.5 30.6153 20.6406C30.6153 20.7812 30.6842 20.9219 30.7874 21.0469C30.9422 21.2187 31.1487 21.3594 31.3724 21.4688C31.7681 21.6562 32.181 21.8281 32.594 21.9844C33.5231 22.2656 34.4177 22.6562 35.2436 23.125C35.8114 23.4531 36.2759 23.8906 36.6028 24.4219C36.8781 24.9219 37.0158 25.4688 36.9986 26.0312C37.0158 26.7656 36.7749 27.5 36.3276 28.1094C35.8458 28.7344 35.1748 29.2188 34.4005 29.5C33.5575 29.8281 32.5251 30 31.2864 30C30.4949 30 29.7207 29.9375 28.9464 29.7969C28.3442 29.7031 27.742 29.5312 27.1915 29.2969C27.071 29.2344 26.985 29.125 27.0022 29V26.2812C27.0022 26.2344 27.0194 26.1719 27.071 26.1406C27.1226 26.1094 27.1742 26.125 27.2259 26.1562C27.8969 26.5156 28.6023 26.7656 29.3593 26.9219C30.0131 27.0781 30.7014 27.1562 31.3896 27.1562C32.0434 27.1562 32.5079 27.0781 32.8176 26.9375C33.0929 26.8281 33.2822 26.5625 33.2822 26.2812C33.2822 26.0625 33.1445 25.8594 32.8693 25.6562C32.594 25.4531 32.0262 25.2187 31.1831 24.9219C30.3056 24.6406 29.497 24.2656 28.7399 23.7969C28.2066 23.4531 27.7592 23 27.4323 22.4688C27.157 21.9688 27.0194 21.4219 27.0366 20.875C27.0366 20.2031 27.2431 19.5625 27.6216 18.9844C28.0517 18.3594 28.6883 17.8594 29.4282 17.5469C30.2368 17.1719 31.2519 17 32.4735 17C33.179 17 33.9016 17.0469 34.607 17.1406C35.1232 17.2031 35.6221 17.3281 36.0867 17.5C36.1555 17.5156 36.2243 17.5781 36.2587 17.6406C36.2759 17.7031 36.2931 17.7656 36.2931 17.8281V20.375C36.2931 20.4375 36.2587 20.5 36.2071 20.5312C36.0523 20.5625 35.9662 20.5625 35.8974 20.5312Z" fill="#31A8FF"/>
</svg>
