<svg width="48" height="44" viewBox="0 0 48 44" fill="none" xmlns="http://www.w3.org/2000/svg">
<path d="M20.9141 30.3203C15.7578 29.6953 12.125 25.9844 12.125 21.1797C12.125 19.2266 12.8281 17.1172 14 15.7109C13.4922 14.4219 13.5703 11.6875 14.1562 10.5547C15.7187 10.3594 17.8281 11.1797 19.0781 12.3125C20.5625 11.8438 22.125 11.6094 24.0391 11.6094C25.9531 11.6094 27.5156 11.8438 28.9219 12.2734C30.1328 11.1797 32.2813 10.3594 33.8438 10.5547C34.3906 11.6094 34.4687 14.3438 33.9609 15.6719C35.2109 17.1562 35.875 19.1484 35.875 21.1797C35.875 25.9844 32.2422 29.6172 27.0078 30.2813C28.3359 31.1406 29.2344 33.0156 29.2344 35.1641V39.2266C29.2344 40.3984 30.2109 41.0625 31.3828 40.5938C38.4531 37.8984 44 30.8281 44 22.0781C44 11.0234 35.0156 2 23.9609 2C12.9062 2 4 11.0234 4 22.0781C4 30.75 9.5078 37.9375 16.9297 40.6328C17.9844 41.0234 19 40.3203 19 39.2656V36.1406C18.4531 36.375 17.75 36.5313 17.125 36.5313C14.5469 36.5313 13.0234 35.125 11.9297 32.5078C11.5 31.4531 11.0313 30.8281 10.1328 30.7109C9.66408 30.6719 9.5078 30.4766 9.5078 30.2422C9.5078 29.7734 10.2891 29.4219 11.0703 29.4219C12.2031 29.4219 13.1797 30.125 14.1953 31.5703C14.9766 32.7031 15.7969 33.2109 16.7734 33.2109C17.75 33.2109 18.375 32.8594 19.2734 31.9609C19.9375 31.2969 20.4453 30.7109 20.9141 30.3203Z" fill="#F4F4F4"/>
</svg>
