<svg width="48" height="44" viewBox="0 0 48 44" fill="none" xmlns="http://www.w3.org/2000/svg">
<rect x="4" y="2" width="40" height="40" rx="8" fill="#00005B"/>
<path d="M20.0666 25.8332H13.8666L12.6 29.7665C12.5666 29.9165 12.4333 30.0165 12.2833 29.9999H9.14996C8.96662 29.9999 8.91662 29.8999 8.96662 29.6999L14.3333 14.3165C14.3833 14.1499 14.4333 13.9999 14.5 13.7999C14.5666 13.4499 14.6 13.0832 14.6 12.7165C14.5833 12.6332 14.65 12.5499 14.7333 12.5332H14.7833H19.05C19.1666 12.5332 19.25 12.5832 19.2666 12.6665L25.35 29.6665C25.4 29.8499 25.35 29.9332 25.1833 29.9332H21.7C21.5833 29.9499 21.4666 29.8665 21.4333 29.7499L20.0666 25.7499V25.8332ZM14.8333 22.5165H19.0666C18.9666 22.1665 18.8333 21.7499 18.6833 21.3165C18.5333 20.8665 18.3833 20.3832 18.2333 19.8832C18.0666 19.3665 17.9166 18.8665 17.75 18.3499C17.5833 17.8332 17.4333 17.3499 17.3 16.8665C17.1666 16.3999 17.05 15.9665 16.9333 15.5665H16.9C16.75 16.2832 16.5666 16.9999 16.3333 17.7165C16.0833 18.5165 15.8333 19.3499 15.5666 20.1832C15.35 21.0332 15.0833 21.8165 14.8333 22.5165Z" fill="#9999FF"/>
<path d="M35.1667 24.3333H29.8834C29.95 24.85 30.1167 25.3666 30.4 25.8166C30.7 26.2666 31.1167 26.6166 31.6167 26.8166C32.2834 27.1 33.0167 27.25 33.75 27.2333C34.3334 27.2166 34.9167 27.1666 35.4834 27.05C36 26.9833 36.5 26.85 36.9667 26.6666C37.05 26.6 37.1 26.6333 37.1 26.8V29.35C37.1 29.4166 37.0834 29.4833 37.0667 29.55C37.0334 29.6 37 29.6333 36.95 29.6666C36.4167 29.9 35.8667 30.0666 35.2834 30.1666C34.5 30.3166 33.7167 30.3833 32.9167 30.3666C31.65 30.3666 30.5834 30.1666 29.7167 29.7833C28.9 29.4333 28.1834 28.8833 27.6167 28.2C27.0834 27.55 26.7 26.8166 26.4667 26.0166C26.2334 25.2333 26.1167 24.4166 26.1167 23.5833C26.1167 22.6833 26.25 21.8 26.5334 20.9333C26.8 20.1 27.2167 19.3333 27.7834 18.65C28.3334 17.9833 29.0167 17.45 29.8 17.0666C30.5834 16.6833 31.5167 16.55 32.5834 16.55C33.4667 16.5333 34.35 16.7 35.1667 17.0666C35.85 17.3666 36.45 17.8166 36.9167 18.4C37.35 18.9666 37.7 19.6 37.9167 20.3C38.1334 20.9666 38.2334 21.65 38.2334 22.3333C38.2334 22.7333 38.2167 23.0833 38.2 23.4C38.1667 23.7166 38.15 23.95 38.1334 24.1C38.1167 24.2166 38.0167 24.3166 37.9 24.3166C37.8 24.3166 37.6167 24.3333 37.35 24.35C37.0834 24.3833 36.7667 24.4 36.3834 24.4C36 24.4 35.6 24.3333 35.1667 24.3333ZM29.8834 21.9H33.4C33.8334 21.9 34.15 21.9 34.35 21.8833C34.4834 21.8666 34.6167 21.8333 34.7334 21.75V21.5833C34.7334 21.3666 34.7 21.1666 34.6334 20.9666C34.3334 20.0333 33.45 19.4 32.4667 19.4333C31.55 19.3833 30.6834 19.8666 30.25 20.7C30.05 21.0833 29.9334 21.4833 29.8834 21.9Z" fill="#9999FF"/>
</svg>
