<svg width="48" height="44" viewBox="0 0 48 44" fill="none" xmlns="http://www.w3.org/2000/svg">
<path fill-rule="evenodd" clip-rule="evenodd" d="M24 22C24 18.1341 27.3579 15 31.5 15C35.6421 15 39 18.1341 39 22C39 25.8659 35.6421 29 31.5 29C27.3579 29 24 25.8659 24 22Z" fill="#1ABCFE"/>
<path fill-rule="evenodd" clip-rule="evenodd" d="M9 36.5C9 32.3579 12.3579 29 16.5 29H24V36.5C24 40.6421 20.6421 44 16.5 44C12.3579 44 9 40.6421 9 36.5Z" fill="#0ACF83"/>
<path fill-rule="evenodd" clip-rule="evenodd" d="M24 0V15H31.5C35.6421 15 39 11.6421 39 7.5C39 3.35786 35.6421 0 31.5 0H24Z" fill="#FF7262"/>
<path fill-rule="evenodd" clip-rule="evenodd" d="M9 7.5C9 11.6421 12.3579 15 16.5 15H24V0H16.5C12.3579 0 9 3.35786 9 7.5Z" fill="#F24E1E"/>
<path fill-rule="evenodd" clip-rule="evenodd" d="M9 22C9 25.8659 12.3579 29 16.5 29H24V15H16.5C12.3579 15 9 18.1341 9 22Z" fill="#A259FF"/>
</svg>
