<svg width="48" height="44" viewBox="0 0 48 44" fill="none" xmlns="http://www.w3.org/2000/svg">
<path d="M29.1981 9.34277H17.9866H6.57646L7.12214 13.7035H17.9866H18.5969L17.9866 13.9544L7.51922 18.2601L7.86636 22.5226L17.9866 22.555L23.4108 22.572L23.0635 28.2555L17.9865 29.6672V29.6628L17.9449 29.6742L13.0418 28.4517L12.7443 24.9237H12.728H8.18014H8.16413L8.75942 31.7345L17.9867 34.4295V34.4247L18.0033 34.4295L27.1811 31.7836L28.3717 18.2601H17.9867H17.9611L17.9867 18.2492L28.7521 13.7035L29.1981 9.34277Z" fill="white"/>
<path d="M36 2L32.6245 38.1108L17.9998 42L3.37482 38.1108L0 2H36ZM29.1981 9.34257H17.9866H6.57646L7.12214 13.7033H17.9866H18.5969L17.9866 13.9542L7.51921 18.2599L7.86636 22.5224L17.9866 22.5548L23.4108 22.5718L23.0635 28.2553L17.9865 29.667V29.6626L17.9449 29.674L13.0418 28.4515L12.7443 24.9235H12.728H8.18013H8.16412L8.75942 31.7343L17.9867 34.4293V34.4245L18.0033 34.4293L27.1811 31.7834L28.3717 18.2599H17.9867H17.9611L17.9867 18.249L28.7521 13.7033L29.1981 9.34257Z" fill="#2163B1"/>
<path d="M40.8896 13.7266C35.1484 13.7266 29.4101 13.7266 23.6509 13.7266C23.7861 15.2474 23.9199 16.7535 24.0521 18.2641C29.5364 18.2641 35.0041 18.2641 40.4913 18.2641C40.4508 18.5836 40.3997 18.8854 40.3711 19.1901C40.2945 19.9572 40.2208 20.7257 40.1517 21.4898C40.0254 22.8781 39.9022 24.2753 39.7789 25.6637C39.6707 26.9121 39.561 28.1532 39.4468 29.4017C39.3762 30.1894 39.2965 30.977 39.2289 31.7632C39.2168 31.8869 39.1357 31.8898 39.062 31.9119C37.1187 32.436 35.1784 32.9616 33.2351 33.4828C32.1695 33.7729 31.1055 34.0658 30.0384 34.3529C29.9903 34.3677 29.9241 34.3588 29.873 34.3426C26.8581 33.5314 23.8447 32.7173 20.8328 31.909C20.6946 31.8751 20.6916 31.7912 20.6825 31.694C20.6059 30.7459 20.5292 29.8051 20.4571 28.857C20.3564 27.585 20.2542 26.3114 20.152 25.0379C20.149 25.0056 20.149 24.9658 20.146 24.9202C21.6339 24.9202 23.1188 24.9202 24.6112 24.9202C24.6488 25.3339 24.6894 25.7476 24.7255 26.1539C24.7916 26.8753 24.8577 27.5953 24.9208 28.3211C24.9269 28.4035 24.9524 28.4359 25.0336 28.4595C26.6507 28.882 28.2649 29.3104 29.8851 29.7359C29.9422 29.7521 30.0113 29.7448 30.0699 29.73C31.6661 29.3104 33.2607 28.885 34.8598 28.4698C34.956 28.4418 34.9981 28.3991 35.0071 28.3034C35.1829 26.4572 35.3618 24.608 35.5436 22.7633C35.5436 22.7574 35.5406 22.7501 35.5376 22.7294C30.3329 22.7294 25.1252 22.7294 19.9055 22.7294C19.4952 18.267 19.0894 13.8208 18.6821 9.36133C26.2344 9.36133 33.7536 9.36133 41.3119 9.36133C41.1752 10.8159 41.0309 12.2632 40.8896 13.7266Z" fill="white"/>
<path d="M12 2.01178C12.0195 2.2017 12.0346 2.3769 12.0496 2.5521C12.2044 4.24961 12.3547 5.9486 12.511 7.64464C12.7094 9.8015 12.9093 11.9628 13.1047 14.1182C13.27 15.932 13.4338 17.7502 13.5976 19.5655C13.784 21.6105 13.9719 23.654 14.1582 25.7004C14.322 27.5128 14.4859 29.3325 14.6512 31.1478C14.8526 33.3591 15.057 35.5675 15.2494 37.7788C15.2614 37.9217 15.308 37.982 15.4523 38.0203C20.2271 39.3394 24.999 40.6601 29.7678 41.9763C29.888 42.0086 30.0323 42.0072 30.1525 41.9763C34.9424 40.6601 39.7308 39.3424 44.5207 38.0277C44.6845 37.982 44.7356 37.9128 44.7461 37.7553C44.8483 36.523 44.9656 35.2922 45.0753 34.0614C45.1985 32.704 45.3248 31.3436 45.448 29.9832C45.5592 28.7671 45.6674 27.554 45.7802 26.3364C45.9064 24.9761 46.0296 23.6157 46.1529 22.2568C46.2611 21.0422 46.3723 19.8291 46.485 18.6115C46.6083 17.257 46.7315 15.9025 46.8548 14.5481C46.966 13.329 47.0742 12.11 47.1899 10.888C47.3132 9.53355 47.4364 8.17907 47.5596 6.82459C47.6709 5.59084 47.7821 4.35414 47.9008 3.11892C47.9324 2.75085 47.9639 2.37984 48 2C35.99 2.01178 24.01 2.01178 12 2.01178ZM40.8896 13.7265C35.1483 13.7265 29.4101 13.7265 23.6508 13.7265C23.7861 15.2474 23.9198 16.7535 24.0521 18.264C29.5363 18.264 35.004 18.264 40.4913 18.264C40.4507 18.5835 40.3996 18.8853 40.3711 19.1901C40.2944 19.9571 40.2208 20.7257 40.1516 21.4898C40.0254 22.8781 39.9021 24.2753 39.7789 25.6636C39.6707 26.9121 39.561 28.1532 39.4467 29.4017C39.3761 30.1893 39.2965 30.977 39.2288 31.7632C39.2168 31.8869 39.1356 31.8898 39.062 31.9119C37.1187 32.436 35.1784 32.9616 33.2351 33.4828C32.1695 33.7728 31.1054 34.0658 30.0383 34.3529C29.9902 34.3676 29.9241 34.3588 29.873 34.3426C26.8581 33.5314 23.8447 32.7172 20.8328 31.9089C20.6945 31.8751 20.6915 31.7912 20.6825 31.694C20.6059 30.7459 20.5292 29.8051 20.4571 28.857C20.3564 27.5849 20.2542 26.3114 20.152 25.0379C20.149 25.0055 20.149 24.9658 20.146 24.9201C21.6339 24.9201 23.1188 24.9201 24.6112 24.9201C24.6488 25.3338 24.6893 25.7475 24.7254 26.1539C24.7915 26.8753 24.8577 27.5952 24.9208 28.3211C24.9268 28.4035 24.9524 28.4359 25.0335 28.4594C26.6507 28.882 28.2649 29.3104 29.885 29.7359C29.9421 29.7521 30.0113 29.7447 30.0699 29.73C31.666 29.3104 33.2606 28.8849 34.8598 28.4697C34.956 28.4418 34.998 28.3991 35.0071 28.3034C35.1829 26.4572 35.3617 24.608 35.5436 22.7633C35.5436 22.7574 35.5406 22.75 35.5376 22.7294C30.3329 22.7294 25.1252 22.7294 19.9055 22.7294C19.4952 18.267 19.0894 13.8208 18.6821 9.3613C26.2344 9.3613 33.7536 9.3613 41.3119 9.3613C41.1751 10.8159 41.0309 12.2631 40.8896 13.7265Z" fill="#E44D26"/>
</svg>
