<svg width="48" height="44" viewBox="0 0 48 44" fill="none" xmlns="http://www.w3.org/2000/svg">
<path d="M0 16.4C0 11.3595 0 8.83929 0.980941 6.91409C1.8438 5.22063 3.22063 3.8438 4.91409 2.98094C6.83929 2 9.35953 2 14.4 2H20H25.6C30.6405 2 33.1607 2 35.0859 2.98094C36.7794 3.8438 38.1562 5.22063 39.0191 6.91409C40 8.83929 40 11.3595 40 16.4V27.6C40 32.6405 40 35.1607 39.0191 37.0859C38.1562 38.7794 36.7794 40.1562 35.0859 41.0191C33.1607 42 30.6405 42 25.6 42H14.4C9.35953 42 6.83929 42 4.91409 41.0191C3.22063 40.1562 1.8438 38.7794 0.980941 37.0859C0 35.1607 0 32.6405 0 27.6V16.4Z" fill="#D9D9D9"/>
<path d="M0 16.4C0 11.3595 0 8.83929 0.980941 6.91409C1.8438 5.22063 3.22063 3.8438 4.91409 2.98094C6.83929 2 9.35953 2 14.4 2H20H25.6C30.6405 2 33.1607 2 35.0859 2.98094C36.7794 3.8438 38.1562 5.22063 39.0191 6.91409C40 8.83929 40 11.3595 40 16.4V27.6C40 32.6405 40 35.1607 39.0191 37.0859C38.1562 38.7794 36.7794 40.1562 35.0859 41.0191C33.1607 42 30.6405 42 25.6 42H14.4C9.35953 42 6.83929 42 4.91409 41.0191C3.22063 40.1562 1.8438 38.7794 0.980941 37.0859C0 35.1607 0 32.6405 0 27.6V16.4Z" fill="url(#paint0_linear_331_256)"/>
<path d="M0 16.4C0 11.3595 0 8.83929 0.980941 6.91409C1.8438 5.22063 3.22063 3.8438 4.91409 2.98094C6.83929 2 9.35953 2 14.4 2H16.5L23.3756 8.87563C24.3474 9.84741 24.8333 10.3333 25.2287 10.8664C26.1105 12.0553 26.6855 13.4434 26.9026 14.9076C27 15.5642 27 16.2513 27 17.6256C27 20.7651 27 22.3348 26.6126 23.6121C25.7401 26.4889 23.4889 28.7401 20.6121 29.6126C19.3348 30 17.7651 30 14.6256 30H14.0724C12.4095 30 11.5781 30 10.7894 29.8584C9.42878 29.6142 8.14275 29.0599 7.03101 28.2384C6.38652 27.7622 5.81563 27.1577 4.67386 25.9488L0 21V16.4Z" fill="#D9D9D9"/>
<path d="M0 16.4C0 11.3595 0 8.83929 0.980941 6.91409C1.8438 5.22063 3.22063 3.8438 4.91409 2.98094C6.83929 2 9.35953 2 14.4 2H16.5L23.3756 8.87563C24.3474 9.84741 24.8333 10.3333 25.2287 10.8664C26.1105 12.0553 26.6855 13.4434 26.9026 14.9076C27 15.5642 27 16.2513 27 17.6256C27 20.7651 27 22.3348 26.6126 23.6121C25.7401 26.4889 23.4889 28.7401 20.6121 29.6126C19.3348 30 17.7651 30 14.6256 30H14.0724C12.4095 30 11.5781 30 10.7894 29.8584C9.42878 29.6142 8.14275 29.0599 7.03101 28.2384C6.38652 27.7622 5.81563 27.1577 4.67386 25.9488L0 21V16.4Z" fill="url(#paint1_linear_331_256)"/>
<path d="M0 16.4C0 11.3595 0 8.83929 0.980941 6.91409C1.8438 5.22063 3.22063 3.8438 4.91409 2.98094C6.83929 2 9.35953 2 14.4 2H16.5L23.3756 8.87563C24.3474 9.84741 24.8333 10.3333 25.2287 10.8664C26.1105 12.0553 26.6855 13.4434 26.9026 14.9076C27 15.5642 27 16.2513 27 17.6256C27 20.7651 27 22.3348 26.6126 23.6121C25.7401 26.4889 23.4889 28.7401 20.6121 29.6126C19.3348 30 17.7651 30 14.6256 30H14.0724C12.4095 30 11.5781 30 10.7894 29.8584C9.42878 29.6142 8.14275 29.0599 7.03101 28.2384C6.38652 27.7622 5.81563 27.1577 4.67386 25.9488L0 21V16.4Z" fill="url(#paint2_linear_331_256)"/>
<path d="M22.6094 7.9375C35.7969 16.9062 31.5313 26.7969 31.5313 26.7969C31.5313 26.7969 35.2813 31.0312 33.7656 34.7344C33.7656 34.7344 32.2188 32.1406 29.625 32.1406C27.125 32.1406 25.6562 34.7344 20.625 34.7344C9.42188 34.7344 4.125 25.375 4.125 25.375C14.2188 32.0156 21.1094 27.3125 21.1094 27.3125C16.5625 24.6719 6.89062 12.0469 6.89062 12.0469C15.3125 19.2188 18.9531 21.1094 18.9531 21.1094C16.7812 19.3125 10.6875 10.5312 10.6875 10.5312C15.5625 15.4688 25.25 22.3594 25.25 22.3594C28 14.7344 22.6094 7.9375 22.6094 7.9375Z" fill="white"/>
<rect x="8" y="2" width="40" height="40" rx="10" fill="url(#paint3_linear_331_256)"/>
<path d="M41.75 34.7188C41.6094 34.5 41.4531 34.2812 41.2812 34.0781C40.8906 33.6094 40.4375 33.2031 39.9375 32.8594C39.3125 32.4375 38.5781 32.1719 37.8281 32.1406C37.2969 32.1094 36.7656 32.2031 36.2656 32.3906C35.7656 32.5625 35.2812 32.8125 34.8125 33.0625C34.2656 33.3438 33.7187 33.625 33.1406 33.8594C32.4531 34.1406 31.7344 34.3594 31 34.5156C30.0781 34.6875 29.1406 34.75 28.2187 34.7344C26.5469 34.7031 24.875 34.4531 23.2812 33.9844C21.875 33.5625 20.5312 32.9844 19.2656 32.25C18.1562 31.6094 17.125 30.875 16.1562 30.0469C15.3594 29.3594 14.625 28.625 13.9375 27.8438C13.4687 27.2969 13.0156 26.7187 12.5937 26.125C12.4219 25.8906 12.2656 25.6406 12.125 25.3906L8 20.9375V10.8594C8 5.96875 11.9531 2 16.8437 2H24.7344L30.5781 7.9375C43.7656 16.9062 39.5 26.7969 39.5 26.7969C39.5 26.7969 43.25 31.0156 41.75 34.7188Z" fill="url(#paint4_linear_331_256)"/>
<path d="M30.6094 7.9375C43.7969 16.9062 39.5313 26.7969 39.5313 26.7969C39.5313 26.7969 43.2813 31.0312 41.7656 34.7344C41.7656 34.7344 40.2188 32.1406 37.625 32.1406C35.125 32.1406 33.6562 34.7344 28.625 34.7344C17.4219 34.7344 12.125 25.375 12.125 25.375C22.2188 32.0156 29.1094 27.3125 29.1094 27.3125C24.5625 24.6719 14.8906 12.0469 14.8906 12.0469C23.3125 19.2188 26.9531 21.1094 26.9531 21.1094C24.7812 19.3125 18.6875 10.5312 18.6875 10.5312C23.5625 15.4688 33.25 22.3594 33.25 22.3594C36 14.7344 30.6094 7.9375 30.6094 7.9375Z" fill="black"/>
<defs>
<linearGradient id="paint0_linear_331_256" x1="23.7616" y1="0.572687" x2="16.2122" y2="43.4351" gradientUnits="userSpaceOnUse">
<stop stop-color="#FAAE42"/>
<stop offset="1" stop-color="#EF3E31"/>
</linearGradient>
<linearGradient id="paint1_linear_331_256" x1="23.7616" y1="0.572688" x2="16.2122" y2="43.4351" gradientUnits="userSpaceOnUse">
<stop stop-color="#FAAE42"/>
<stop offset="1" stop-color="#EF3E31"/>
</linearGradient>
<linearGradient id="paint2_linear_331_256" x1="16.1569" y1="2.55278" x2="11.0716" y2="29.2477" gradientUnits="userSpaceOnUse">
<stop stop-color="#E39F3A"/>
<stop offset="1" stop-color="#D33929"/>
</linearGradient>
<linearGradient id="paint3_linear_331_256" x1="31.7616" y1="0.572687" x2="24.2122" y2="43.4351" gradientUnits="userSpaceOnUse">
<stop stop-color="#18FFFF"/>
<stop offset="1" stop-color="#000B8E"/>
</linearGradient>
<linearGradient id="paint4_linear_331_256" x1="14" y1="8" x2="31" y2="25" gradientUnits="userSpaceOnUse">
<stop stop-color="#00F4F7"/>
<stop offset="1" stop-color="#1236CB"/>
</linearGradient>
</defs>
</svg>
