<svg width="40" height="40" viewBox="0 0 40 40" fill="none" xmlns="http://www.w3.org/2000/svg">
<g clip-path="url(#clip0_265_407)">
<rect width="40" height="40" rx="8" fill="#001E36"/>
<path d="M9 28.3494V11.1993C9 11.0827 9.05 11.016 9.16667 11.016C9.45 11.016 9.71667 11.016 10.1 10.9993C10.5 10.9827 10.9167 10.9827 11.3667 10.966C11.8167 10.9493 12.3 10.9493 12.8167 10.9327C13.3333 10.916 13.8333 10.916 14.3333 10.916C15.7 10.916 16.8333 11.0827 17.7667 11.4327C18.6 11.716 19.3667 12.1827 20 12.7993C20.5333 13.3327 20.95 13.9827 21.2167 14.6993C21.4667 15.3993 21.6 16.116 21.6 16.866C21.6 18.2993 21.2667 19.4827 20.6 20.416C19.9333 21.3493 19 22.0493 17.9167 22.4493C16.7833 22.866 15.5333 23.016 14.1667 23.016C13.7667 23.016 13.5 23.016 13.3333 22.9993C13.1667 22.9827 12.9333 22.9827 12.6167 22.9827V28.3327C12.6333 28.4493 12.55 28.5493 12.4333 28.566C12.4167 28.566 12.4 28.566 12.3667 28.566H9.2C9.06667 28.566 9 28.4994 9 28.3494ZM12.6333 14.2327V19.8327C12.8667 19.8493 13.0833 19.866 13.2833 19.866H14.1667C14.8167 19.866 15.4667 19.766 16.0833 19.566C16.6167 19.416 17.0833 19.0993 17.45 18.6827C17.8 18.266 17.9667 17.6993 17.9667 16.966C17.9833 16.4493 17.85 15.9327 17.5833 15.4827C17.3 15.0493 16.9 14.716 16.4167 14.5327C15.8 14.2827 15.1333 14.1827 14.45 14.1993C14.0167 14.1993 13.6333 14.1993 13.3167 14.216C12.9833 14.1993 12.75 14.216 12.6333 14.2327Z" fill="#31A8FF"/>
<path d="M32 18.8155C31.5 18.5488 30.9667 18.3655 30.4 18.2488C29.7833 18.1155 29.1667 18.0322 28.5333 18.0322C28.2 18.0155 27.85 18.0655 27.5333 18.1488C27.3167 18.1988 27.1333 18.3155 27.0167 18.4822C26.9333 18.6155 26.8833 18.7822 26.8833 18.9322C26.8833 19.0822 26.95 19.2322 27.05 19.3655C27.2 19.5488 27.4 19.6988 27.6167 19.8155C28 20.0155 28.4 20.1988 28.8 20.3655C29.7 20.6655 30.5667 21.0822 31.3667 21.5822C31.9167 21.9322 32.3667 22.3988 32.6833 22.9655C32.95 23.4988 33.0833 24.0822 33.0667 24.6822C33.0833 25.4655 32.85 26.2488 32.4167 26.8988C31.95 27.5655 31.3 28.0822 30.55 28.3822C29.7333 28.7322 28.7333 28.9155 27.5333 28.9155C26.7667 28.9155 26.0167 28.8488 25.2667 28.6988C24.6833 28.5988 24.1 28.4155 23.5667 28.1655C23.45 28.0988 23.3667 27.9822 23.3833 27.8488V24.9488C23.3833 24.8988 23.4 24.8322 23.45 24.7988C23.5 24.7655 23.55 24.7822 23.6 24.8155C24.25 25.1988 24.9333 25.4655 25.6667 25.6322C26.3 25.7988 26.9667 25.8822 27.6333 25.8822C28.2667 25.8822 28.7167 25.7988 29.0167 25.6488C29.2833 25.5322 29.4667 25.2488 29.4667 24.9488C29.4667 24.7155 29.3333 24.4988 29.0667 24.2822C28.8 24.0655 28.25 23.8155 27.4333 23.4988C26.5833 23.1988 25.8 22.7988 25.0667 22.2988C24.55 21.9322 24.1167 21.4488 23.8 20.8822C23.5333 20.3488 23.4 19.7655 23.4167 19.1822C23.4167 18.4655 23.6167 17.7822 23.9833 17.1655C24.4 16.4988 25.0167 15.9655 25.7333 15.6322C26.5167 15.2322 27.5 15.0488 28.6833 15.0488C29.3667 15.0488 30.0667 15.0988 30.75 15.1988C31.25 15.2655 31.7333 15.3988 32.1833 15.5822C32.25 15.5988 32.3167 15.6655 32.35 15.7322C32.3667 15.7988 32.3833 15.8655 32.3833 15.9322V18.6488C32.3833 18.7155 32.35 18.7822 32.3 18.8155C32.15 18.8488 32.0667 18.8488 32 18.8155Z" fill="#31A8FF"/>
</g>
<defs>
<clipPath id="clip0_265_407">
<rect width="40" height="40" fill="white"/>
</clipPath>
</defs>
</svg>
