<svg width="60" height="40" viewBox="0 0 60 40" fill="none" xmlns="http://www.w3.org/2000/svg">
<g clip-path="url(#clip0_290_216)">
<path d="M8.89065 0C9.12503 0 30.6563 0 31.0469 0C32.125 0 33.1719 0.171875 34.1875 0.53125C35.6563 1.0625 36.9844 2 37.9844 3.21875C39 4.4375 39.6719 5.9375 39.9063 7.5C40 8.07812 40.0157 8.65625 40.0157 9.23438C40.0157 9.76562 40.0157 28.4844 40.0157 29.3281C40.0157 29.8281 40.0157 30.3437 40.0157 30.8438C40.0157 31.5312 39.9844 32.2344 39.8438 32.9062C39.5313 34.4531 38.7969 35.9062 37.7344 37.0781C36.6875 38.25 35.3125 39.125 33.8282 39.5938C32.9219 39.875 31.9844 40 31.0313 40C30.6094 40 8.82815 40 8.50003 39.9844C6.90628 39.9062 5.32815 39.3906 4.00003 38.5C2.70315 37.625 1.64065 36.4062 0.953151 35C0.359401 33.7969 0.0625264 32.4531 0.0625264 31.1094C0.0625264 30.7969 0.0625264 9.20312 0.0625264 8.89062C0.0312764 7.5625 0.312526 6.25 0.890651 5.0625C1.56253 3.65625 2.6094 2.42188 3.90628 1.54688C5.2344 0.640625 6.7969 0.109375 8.39065 0.03125C8.5469 0 8.71878 0 8.89065 0Z" fill="url(#paint0_linear_290_216)"/>
<path d="M33.75 32.7188C33.6094 32.5 33.4531 32.2812 33.2812 32.0781C32.8906 31.6094 32.4375 31.2031 31.9375 30.8594C31.3125 30.4375 30.5781 30.1719 29.8281 30.1406C29.2969 30.1094 28.7656 30.2031 28.2656 30.3906C27.7656 30.5625 27.2812 30.8125 26.8125 31.0625C26.2656 31.3438 25.7187 31.625 25.1406 31.8594C24.4531 32.1406 23.7344 32.3594 23 32.5156C22.0781 32.6875 21.1406 32.75 20.2187 32.7344C18.5469 32.7031 16.875 32.4531 15.2812 31.9844C13.875 31.5625 12.5312 30.9844 11.2656 30.25C10.1562 29.6094 9.125 28.875 8.15625 28.0469C7.35937 27.3594 6.625 26.625 5.9375 25.8438C5.46875 25.2969 5.01562 24.7187 4.59375 24.125C4.42187 23.8906 4.26562 23.6406 4.125 23.3906L0 18.9375V8.85938C0 3.96875 3.95312 0 8.84375 0H16.7344L22.5781 5.9375C35.7656 14.9062 31.5 24.7969 31.5 24.7969C31.5 24.7969 35.25 29.0156 33.75 32.7188Z" fill="url(#paint1_linear_290_216)"/>
<path d="M22.6094 5.9375C35.7969 14.9062 31.5313 24.7969 31.5313 24.7969C31.5313 24.7969 35.2813 29.0312 33.7656 32.7344C33.7656 32.7344 32.2188 30.1406 29.625 30.1406C27.125 30.1406 25.6562 32.7344 20.625 32.7344C9.42188 32.7344 4.125 23.375 4.125 23.375C14.2188 30.0156 21.1094 25.3125 21.1094 25.3125C16.5625 22.6719 6.89062 10.0469 6.89062 10.0469C15.3125 17.2188 18.9531 19.1094 18.9531 19.1094C16.7812 17.3125 10.6875 8.53125 10.6875 8.53125C15.5625 13.4688 25.25 20.3594 25.25 20.3594C28 12.7344 22.6094 5.9375 22.6094 5.9375Z" fill="white"/>
</g>
<rect x="20" width="40" height="40" rx="10" fill="url(#paint2_linear_290_216)"/>
<path d="M53.75 32.7188C53.6094 32.5 53.4531 32.2812 53.2812 32.0781C52.8906 31.6094 52.4375 31.2031 51.9375 30.8594C51.3125 30.4375 50.5781 30.1719 49.8281 30.1406C49.2969 30.1094 48.7656 30.2031 48.2656 30.3906C47.7656 30.5625 47.2812 30.8125 46.8125 31.0625C46.2656 31.3438 45.7187 31.625 45.1406 31.8594C44.4531 32.1406 43.7344 32.3594 43 32.5156C42.0781 32.6875 41.1406 32.75 40.2187 32.7344C38.5469 32.7031 36.875 32.4531 35.2812 31.9844C33.875 31.5625 32.5312 30.9844 31.2656 30.25C30.1562 29.6094 29.125 28.875 28.1562 28.0469C27.3594 27.3594 26.625 26.625 25.9375 25.8438C25.4687 25.2969 25.0156 24.7187 24.5937 24.125C24.4219 23.8906 24.2656 23.6406 24.125 23.3906L20 18.9375V8.85938C20 3.96875 23.9531 0 28.8437 0H36.7344L42.5781 5.9375C55.7656 14.9062 51.5 24.7969 51.5 24.7969C51.5 24.7969 55.25 29.0156 53.75 32.7188Z" fill="url(#paint3_linear_290_216)"/>
<path d="M42.6094 5.9375C55.7969 14.9062 51.5313 24.7969 51.5313 24.7969C51.5313 24.7969 55.2813 29.0312 53.7656 32.7344C53.7656 32.7344 52.2188 30.1406 49.625 30.1406C47.125 30.1406 45.6562 32.7344 40.625 32.7344C29.4219 32.7344 24.125 23.375 24.125 23.375C34.2188 30.0156 41.1094 25.3125 41.1094 25.3125C36.5625 22.6719 26.8906 10.0469 26.8906 10.0469C35.3125 17.2188 38.9531 19.1094 38.9531 19.1094C36.7812 17.3125 30.6875 8.53125 30.6875 8.53125C35.5625 13.4688 45.25 20.3594 45.25 20.3594C48 12.7344 42.6094 5.9375 42.6094 5.9375Z" fill="black"/>
<defs>
<linearGradient id="paint0_linear_290_216" x1="23.7953" y1="-1.42731" x2="16.238" y2="41.4323" gradientUnits="userSpaceOnUse">
<stop stop-color="#FAAE42"/>
<stop offset="1" stop-color="#EF3E31"/>
</linearGradient>
<linearGradient id="paint1_linear_290_216" x1="20.4081" y1="0.646297" x2="14.877" y2="32.0145" gradientUnits="userSpaceOnUse">
<stop stop-color="#E39F3A"/>
<stop offset="1" stop-color="#D33929"/>
</linearGradient>
<linearGradient id="paint2_linear_290_216" x1="43.7616" y1="-1.42731" x2="36.2122" y2="41.4351" gradientUnits="userSpaceOnUse">
<stop stop-color="#18FFFF"/>
<stop offset="1" stop-color="#000B8E"/>
</linearGradient>
<linearGradient id="paint3_linear_290_216" x1="26" y1="6" x2="43" y2="23" gradientUnits="userSpaceOnUse">
<stop stop-color="#00F4F7"/>
<stop offset="1" stop-color="#1236CB"/>
</linearGradient>
<clipPath id="clip0_290_216">
<rect width="40" height="40" fill="white"/>
</clipPath>
</defs>
</svg>
