<svg width="240" height="240" viewBox="0 0 240 240" fill="none" xmlns="http://www.w3.org/2000/svg">
<path d="M154.666 38.8458C159.014 30.3638 169.899 23.8811 179.138 22.6748C173.086 26.3363 159.593 33.9066 157.151 40.0916C158.389 40.8293 160.842 42.2061 161.914 43.0091C163.307 42.0136 164.724 41.1963 166.134 40.2996C169.697 38.0321 173.716 34.8638 177.91 33.8846C188.248 31.4711 188.995 39.8466 190.032 46.7928C188.19 44.4183 185.955 38.7836 184.182 37.3191C179.577 33.5141 171.582 40.2878 167.632 42.6293C165.739 43.7518 164.072 44.8243 162.459 45.8993C173.57 48.5133 184.226 48.6121 191.513 59.2463C192.572 60.7921 193.849 64.9618 195.049 65.5108C195.087 65.7253 195.231 66.4853 195.234 66.6558C195.292 68.0181 196.842 69.3398 197.215 70.6998C199.03 77.3148 203.342 84.5333 203.683 91.4185C204.244 92.1615 207.705 96.8315 208.058 97.1503C208.348 97.569 208.995 98.4433 209.219 98.8451C209.04 99.8726 208.926 100.323 209.975 100.944C214.321 103.516 222.216 108.989 223.892 114.022C226.73 117.537 226.128 119.084 227.588 122.702C227.115 122.796 226.633 122.884 226.165 123.004C224.883 119.354 223.613 116.953 221.568 113.688C218.515 108.508 214.579 105.87 209.518 103.074C210.645 111.625 209.891 118.104 209.575 126.608C209.509 128.37 209.278 133.077 209.44 134.606C209.537 137.003 209.826 144.786 209.088 146.776C210.37 146.341 211.657 145.923 212.95 145.521C213.234 146.118 213.351 146.44 213.781 146.949C210.716 147.864 210.029 148.798 207.901 151.157L207.763 151.458C204.334 157.645 202.246 158.592 197.484 163.219C199.012 170.06 201.508 170.283 203.455 176.502C204.119 178.619 204.13 182.065 204.193 184.355C200.677 178.071 197.869 171.106 194.548 165.381C193.249 166.869 191.685 168.565 190.043 169.67C185.785 173.197 183.041 177.147 179.211 181.02C181.098 188.762 182.862 200.92 172.107 202.762C161.278 204.616 150.799 208.641 139.912 210.618C134.736 211.557 129.285 214.203 123.933 214.779C116.646 215.925 115.532 213.354 111.459 208.307C111.511 209.088 111.552 210.328 111.646 211.065L110.379 211.254L108.902 204.682C103.439 203.257 101.957 203.629 96.4493 201.24C95.0056 207.578 94.4163 212.591 91.1316 218.278C88.1783 223.392 86.4933 226.06 81.7023 229.52C83.1468 224.783 85.0121 222.712 87.3588 218.637C89.9538 214.132 92.4303 208.318 93.1453 203.153C89.0576 204.277 87.4911 207.485 82.6963 208.34C74.4476 209.81 66.1438 208.095 57.9906 206.723C55.2756 206.267 52.4931 205.857 49.8176 205.277C55.9081 205.071 60.4703 205.787 66.4908 206.374C73.8321 207.089 81.2976 208.501 87.7931 204.031C86.2626 203.733 82.7113 203.388 81.2171 202.841C75.2108 200.64 65.4343 198.072 60.6843 194.104C58.7761 192.51 59.3628 186.018 59.3813 183.395C54.9451 181.763 49.8948 178.296 47.6698 174.163C44.8738 168.969 42.5158 167.873 38.2951 164.377C30.1733 157.649 31.0576 146.732 30.2323 137.188L30.3336 135.079C30.6463 129.323 30.2641 123.521 30.6213 117.566C31.0826 109.873 32.9796 103.928 34.2143 96.7436C34.5301 95.7843 34.6316 95.1291 34.8041 94.1396C35.4423 93.3918 36.0341 92.8451 35.8266 91.8246C32.9273 89.7976 29.2983 91.2223 25.3558 90.8271C22.4056 90.5311 14.2518 88.2713 11.3446 86.5903C11.0953 86.4463 11.2333 86.1833 11.2973 85.8271C12.2726 85.4066 13.8758 86.1598 14.8841 86.5223C20.1813 88.4261 25.1383 88.7418 30.7378 88.1456C28.6976 83.3541 29.6413 80.1836 30.9233 75.3666C32.3396 71.0683 33.9786 66.7583 35.4573 62.4848C36.5821 59.2351 38.3913 51.2966 40.4968 48.9876C42.2321 48.5166 58.2338 51.0246 60.9743 51.4966C61.6371 49.0566 63.8498 44.3856 65.7266 42.7253C66.9321 42.8686 66.6028 42.2273 68.1278 41.9828C67.9433 42.8486 68.1153 42.5458 67.5011 43.1441C67.4438 43.2653 67.4878 43.1911 67.3771 43.3191C65.1911 45.8438 63.7671 49.1971 62.7703 52.3373C64.3883 51.3843 65.9168 50.0253 67.4656 49.1288C75.2151 44.6438 83.1623 41.9223 92.1473 44.2113C93.4021 44.5311 95.6063 44.7808 96.6583 43.7371C95.4211 42.0993 95.5706 42.5558 96.1278 40.4806C96.4096 39.4316 97.3081 37.6203 97.1793 36.6361C96.5461 36.2201 94.7873 36.5253 93.7403 36.5508L93.6731 36.3513C94.5901 35.8266 94.7201 35.7968 95.0366 34.9993C95.9813 34.7076 97.7983 34.4433 98.8321 34.2618C100.384 30.5143 102.434 28.4931 106.022 26.4621C106.762 26.9058 107.018 26.8778 107.851 26.9186L108.571 27.4058C106.713 28.1413 105.927 28.6221 104.377 29.8886C121.358 27.8978 139.28 31.6926 154.666 38.8458ZM196.849 161.54C200.37 158.056 202.55 156.699 204.714 152.395C201.927 153.971 199.666 156.731 195.732 158.441C196.037 159.513 196.285 160.58 196.849 161.54ZM85.7958 105.928C85.8773 107.533 85.4941 107.603 84.3341 108.679C84.6383 109.828 84.6031 111.404 84.6298 112.624C87.0208 111.962 88.4913 111.478 91.0156 111.59C90.9286 112.225 90.8223 112.639 90.9608 113.267C87.8888 113.421 86.1531 114.107 83.2538 115.009C82.8478 112.782 82.5706 111.24 82.4271 108.993C80.9493 109.897 78.1601 110.868 77.9596 112.276C77.4331 115.978 77.9071 121.199 78.0703 124.952C81.3828 122.861 86.4503 120.168 89.3291 117.654L90.7211 118.031C90.5883 118.831 89.7776 119.072 89.2721 119.877C88.5436 121.036 88.4733 122.473 87.4581 123.447L87.1183 123.568C87.0008 123.429 86.7861 123.111 86.6568 123.098C83.9156 124.257 81.2363 126.609 78.6391 128.266C79.6628 133.486 82.1346 134.991 84.6966 139.934C84.7583 136.312 85.4006 129.958 86.0226 126.38C87.6576 127.405 87.2376 127.96 88.2901 129.664C88.3146 130.015 88.4253 130.933 88.3253 131.202C88.5766 134.584 87.5446 139.353 87.7213 143.382C89.0276 145.155 89.2803 145.795 91.4193 146.329L91.8938 145.844C91.9916 145.554 92.7688 144.199 92.9548 143.846C94.1026 141.668 94.1993 140.756 94.4533 138.396C95.0323 139.012 95.6101 139.091 96.4333 139.336C95.8898 140.537 93.8356 145.484 93.0761 145.941L92.5256 146.876C94.2506 147.05 96.6163 146.778 98.3943 146.632C97.8276 144.963 97.1921 141.574 96.8171 139.751C98.1346 139.39 99.9046 140.721 100.058 141.987C100.255 143.327 100.537 144.934 100.616 146.264C104.139 145.969 116.247 145.013 118.727 143.507C120.302 143.711 121.328 143.937 122.863 144.377C122.156 145.293 121.398 145.714 120.556 146.473C118.433 148.388 118.151 150.308 117.523 152.899L121.157 152.14C125.67 144.287 126.988 146.823 132.737 142.343C133.261 141.739 134.203 141.165 135.004 141.233C137.527 140.997 138.383 140.904 140.854 141.703C142.019 140.66 147.79 136.986 147.502 135.215C146.346 135.172 145.973 135.134 144.847 134.884C145.407 133.945 145.8 133.047 146.967 132.933C151.178 132.278 152.277 132.023 151.051 127.39L152.276 126.68C152.739 127.682 153.089 129.157 153.387 130.253C157.131 124.238 155.788 119.378 154.275 112.911C153.679 110.366 153.25 107.794 152.808 105.22C152.427 105.895 151.865 107.473 151.705 107.688C150.729 109.262 150.767 109.486 149.103 110.04C150.19 107.965 151.155 106.061 151.627 103.758C150.391 104.09 148.694 104.6 147.468 104.805C145.446 106.263 144.739 107.585 143.383 109.648C142.976 110.282 142.266 111.578 141.482 111.619C141.325 110.636 141.915 109.087 142.214 108.065C142.851 106.734 143.44 106.057 144.57 105.161C146.837 103.038 147.928 102.588 150.947 102.087C150.01 99.9791 147.928 99.9758 145.903 99.7803C145.398 99.9266 143.086 99.8658 142.412 99.8648C142.553 99.7163 142.742 99.4276 142.867 99.2501L142.643 98.3851C144.683 98.1623 146.066 98.1756 148.073 98.5906C150.73 98.9658 151.602 100.058 152.69 102.359C153.233 101.501 153.353 100.303 153.53 99.2821C150.846 96.4053 144.947 91.5328 140.574 91.9208C139.448 92.0206 137.575 95.9708 136.883 97.1776C133.453 94.3936 135.771 95.1016 135.531 92.9018C134.586 92.3361 132.106 94.3895 131.932 90.4433C132.58 89.53 134.912 89.9553 136.252 89.2056C135.837 87.7646 128.912 86.3886 127.43 85.5818C125.88 84.7383 124.14 83.5453 122.685 82.5436L125.912 82.5538C126.029 80.0548 126.091 77.9911 126.031 75.4951C119.991 73.0791 112.126 74.3943 106.401 76.9406C105.075 77.5303 104.091 78.0601 103.589 79.4546C103.177 80.3231 101.959 80.7661 101.046 80.7498C99.8668 80.4681 97.2521 82.2713 96.1278 82.9661C94.3671 84.0541 89.3203 87.7551 88.5233 89.4733C88.7173 91.4198 91.6403 95.1551 92.6843 97.1296C92.0198 97.2678 89.9533 97.7575 89.3998 97.701C88.2153 95.03 87.5106 93.8771 86.0623 91.4031C81.1518 97.0761 79.5553 102.039 77.7816 109.238C78.9298 108.68 81.0921 107.562 82.1948 107.152C82.4718 105.878 82.5533 103.476 82.6583 102.073C83.2808 98.9366 86.3863 98.5811 89.0476 97.9421C88.7548 98.6448 88.5296 99.0453 88.5531 99.8201C85.6136 100.285 85.1506 100.451 84.4828 103.412L84.6836 103.505C84.8016 104.62 84.8541 105.18 85.7958 105.928ZM147.411 123.688C142.922 121.763 140.353 118.446 136.526 116.406C137.48 116.37 137.701 116.597 138.669 116.507L138.647 116.235L138.773 116.35C137.471 115.502 135.865 114.526 135.309 113.015C138.234 115.293 144.952 119.962 147.107 121.93C147.191 122.382 147.385 123.269 147.411 123.688ZM117.249 210.589C120.419 213.828 127.226 210.925 131.112 209.959L151.88 204.684C157.954 203.108 171.385 200.877 176.304 197.629C177.205 194.96 178.292 185.28 176.21 183.42C174.88 185.114 172.172 186.933 170.388 188.337C158.547 197.773 144.302 203.707 129.264 205.47C124.264 206.066 118.496 206.272 113.518 205.33C114.776 207.425 115.728 208.655 117.249 210.589ZM145.234 155.988C147.062 154.376 147.706 151.172 148.03 148.905C149.291 150.018 151.395 151.368 152.839 152.35C153.6 148.242 157.458 143.554 160.028 140.13C158.102 140.565 154.295 141.053 152.524 140.153L152.095 139.62C152.184 139.03 152.537 138.527 153.019 138.167C157.097 135.125 161.355 130.86 165.362 127.906C165.748 127.621 166.142 127.347 166.543 127.082C167.741 123.19 169.383 118.278 167.383 114.484C164.786 109.557 159.161 105.117 156.216 101.144C156.197 103.478 156.168 105.431 156.464 107.791C157.414 115.358 161.048 126.678 154.927 132.824C153.789 133.966 151.857 134.555 151.025 135.335C148.062 138.111 145.229 140.578 142.11 143.167C147.305 148.663 144.965 150.105 145.234 155.988ZM101.244 42.0673C111.507 37.0801 115.626 37.2036 125.743 42.0998C127.326 42.2908 134.236 46.3136 135.924 47.3408C138.669 43.6896 140.781 43.3036 145.321 43.7283C147.543 43.9361 149.728 44.0826 151.938 44.5126L153.173 41.4468C150.528 40.2353 146.709 38.3256 144.048 37.4656C130.979 33.2411 118.58 31.1121 104.904 32.3681C103.654 33.9711 100.326 40.2676 101.244 42.0673ZM40.6846 79.6466C44.3071 72.1708 47.8853 66.5741 53.7218 60.4773C55.3746 58.7508 58.7236 55.7821 60.1093 54.1543C55.5068 53.6966 46.6003 52.7346 42.1676 51.8996C40.1538 58.5801 37.3093 64.9718 35.5093 71.7491C34.6953 74.8146 32.8308 77.9908 32.4298 81.1973C31.8248 86.0331 32.1303 87.5483 36.8781 88.2263C38.1113 84.7888 39.1783 82.8991 40.6846 79.6466ZM154.816 51.2126C156.694 51.2333 159.241 51.2106 161.003 51.8358C164.932 52.5656 168.073 57.5701 170.443 60.3661C173.76 63.5906 176.496 64.4523 179.399 66.8458C186.434 72.6456 194.172 80.0263 199.814 87.1871C197.639 80.7131 195.027 71.3996 190.525 65.8556C190.022 65.2366 184.899 65.2481 183.758 64.5433C185.007 63.6936 186.788 64.6541 187.09 63.7491C186.263 62.8191 184.572 61.8046 183.488 61.0556C182.474 60.5056 176.09 57.6911 175.809 57.3456C178.144 55.8193 182.954 59.0513 185.249 60.0891C186.748 60.8913 188.186 62.0421 189.556 63.0653C188.825 60.8576 188.086 59.7653 186.567 57.9641C181.416 51.8553 166.299 48.6538 158.584 48.1766C157.435 49.1898 155.663 50.1613 154.816 51.2126ZM120.194 164.85C120.651 162.962 121.41 160.013 122.493 158.469C126.606 158.144 130.806 158.137 134.926 157.793C136.691 157.646 138.468 157.492 140.233 157.685C143.432 155.593 143.104 146.772 140.075 145.637C136.33 146.075 134.505 151.218 131.348 152.677C126.498 154.918 121.037 155.315 115.867 156.319C113.894 156.703 112.609 159.106 110.833 159.937C106.694 161.709 96.1811 162.367 91.8268 162.172C93.2483 163.529 94.1221 164.691 95.4306 166.005C97.7431 168.328 101.312 170.345 104.187 171.981C104.977 170.013 106.724 164.757 108.524 164.152C111.034 163.307 117.644 165.047 120.194 164.85ZM62.1376 124.217C64.0086 125.52 65.2388 126.532 66.2138 128.725C67.0848 131.742 66.7771 135.823 67.1603 136.772C69.4261 138.001 70.7676 135.849 72.6453 140.871C72.3246 142.348 72.0048 144.028 71.5511 145.454C72.1858 146.137 75.0543 146.161 76.3186 146.946C78.4596 148.275 80.2903 150.513 82.1801 152.296C80.7441 148.55 78.9756 144.559 78.0476 140.669C76.9561 136.094 76.5556 132.863 75.0448 128.305C76.1276 123.804 74.6883 117.908 75.2138 112.668C71.9671 114.38 68.3468 116.11 65.3041 118.19C63.9003 119.149 61.2228 122.377 62.1376 124.217ZM158.819 91.1535C158.344 92.3163 157.416 94.2413 157.513 95.4046C158.59 97.4871 166.563 99.6028 168.131 102.236C169.965 105.315 169.286 110.216 170.299 113.615C170.84 115.434 172.374 117.033 173.242 118.701L174.102 121.004C176.105 119.165 177.839 117.614 180.214 116.244C180.938 114.859 181.667 113.799 181.021 112.216C178.822 106.823 174.95 102.112 172.347 96.8451C170.989 94.0966 169.478 92.6711 168.453 89.6436C168.202 89.4863 168.061 89.349 167.788 89.3183L158.819 91.1535ZM43.5718 144.553C40.3233 144.591 37.5813 143.06 35.2946 140.907C35.1593 150.341 40.1183 157.989 45.5661 165.276C47.5166 167.886 56.5286 170.057 59.8978 171.156C57.6646 167.646 54.0406 161.955 53.3198 157.943C52.3318 157.973 50.9026 158.151 50.2828 157.426C47.6888 154.39 45.7893 147.673 43.5718 144.553ZM154.561 153.445C155.586 154.02 156.344 154.433 157.282 155.134C160.401 156.948 161.401 157.492 164.973 157.733C168.748 156.676 172.305 147.79 173.358 144.105C174.125 141.422 174.164 138.072 174.503 135.261C171.293 137.071 165.95 139.153 162.518 140.228C160.915 142.203 153.827 150.855 154.561 153.445ZM57.5416 123.013C58.8301 123.243 58.7231 123.441 59.6881 122.969C60.7718 121.353 61.4766 119.173 62.5883 117.983L62.6913 117.871C64.3263 116.136 73.2311 111.833 74.9863 110.819C75.4926 110.526 76.5126 101.847 77.2563 99.9875C78.8396 96.0285 80.7956 93.4721 83.2926 89.9948L83.2821 89.6051L83.1043 89.4766C79.9868 91.8088 76.1808 93.3866 73.1188 96.2658C70.6241 99.1943 67.6766 103.907 65.9608 107.21C65.4786 108.138 67.8496 109.078 64.7513 112.131C62.9976 113.859 57.9908 120.719 57.5416 123.013ZM103.59 69.8151C108.713 70.5083 111.212 69.8956 116.305 69.8096C122.704 69.7261 129.105 69.7773 135.502 69.9636C135.974 69.5968 135.817 69.8308 135.955 69.2173C134.232 68.4418 133.431 67.5071 131.137 66.6803C128.151 65.5961 127.544 65.5108 124.411 65.4291C119.633 65.6468 118.074 68.0568 115.65 68.5413L115.313 68.3086C115.796 65.9211 120.989 64.5523 122.445 60.3031L122.534 60.0356C117.199 59.0083 108.394 62.4706 103.122 64.2603C103.288 65.9956 103.538 68.1046 103.59 69.8151ZM202.063 99.1251C201.865 97.8788 201.571 94.2753 201.177 93.4745C198.97 88.9825 181.493 71.6168 178.322 70.1278C178.481 71.4321 184.576 77.7461 185.592 79.1948C186.717 80.7998 187.382 82.8228 188.328 84.5041C189.119 88.7811 189.28 91.5116 188.602 95.8451C188.552 97.0201 188.378 96.9503 188.861 97.8503C190.161 98.4938 199.389 98.7776 202.063 99.1251ZM62.0443 191.281C67.1168 195.607 75.6161 197.959 81.9333 199.917C84.0743 200.581 88.6971 202.561 90.4921 200.898C91.1773 200.025 91.3861 200.053 91.4811 199.119C90.4641 197.853 85.1226 195.984 83.2896 195.193C79.0166 193.348 75.8136 190.472 71.7423 188.528C68.7703 187.108 65.2081 186.241 62.1061 185.066C62.0726 186.911 61.9516 189.493 62.0443 191.281ZM159.089 192.4C157.239 191.518 155.588 189.92 154.094 188.53C148.291 197.031 141.335 199.239 131.577 196.688C123.583 200.226 118.89 200.373 109.958 199.514C110.538 200.387 111.38 201.577 111.845 202.479C123.732 204.472 133.589 202.937 144.866 199.045C149.973 197.282 154.546 195.594 159.089 192.4ZM81.8016 63.4026C79.7268 64.0446 73.5726 63.8673 71.2871 63.5733C70.1976 63.4446 70.2531 63.2728 69.4463 63.7111L69.1066 64.4318C67.2911 68.7776 65.1536 75.3426 60.7976 77.4701C60.2886 77.8406 59.7878 78.2218 59.2953 78.6138C58.2441 79.1686 55.5328 80.0856 55.1288 80.6473L55.0856 81.1076C56.1146 83.6203 56.4688 85.2283 55.4463 87.8593C55.3711 88.053 55.3891 88.0008 55.3616 88.1981C56.0101 87.7793 64.5763 80.4908 64.6508 80.3768C71.2948 70.2001 68.5671 68.0036 81.6483 68.2553C83.1386 65.1671 85.8871 62.3461 88.2798 59.8973C87.1651 59.3576 86.2211 58.9061 85.0681 58.4471C84.8188 60.5663 84.0006 62.6796 81.8016 63.4026ZM135.923 165.936C138.12 167.47 140.425 168.779 142.648 170.284C147.714 168.525 149.229 168.629 154.034 165.774C152.575 161.966 152.741 157.678 152.212 153.851C151.152 153.141 150.411 152.591 149.419 151.787C148.825 154.93 147.528 156.543 144.664 157.976C143.979 158.413 143.385 159.356 142.85 160.025C140.426 163.056 139.359 164.183 135.923 165.936ZM200.589 116.811C202.146 110.975 202.24 106.402 202.26 100.498C198.798 100.003 192.676 99.9886 188.968 99.8613C190.051 103.869 190.129 106.325 193.272 109.768C194.593 111.216 195.727 112.202 196.952 113.768C198.318 115.513 198.746 117.326 199.829 118.937L200.185 118.974C200.54 118.252 200.532 117.605 200.589 116.811ZM181.188 77.1598C179.117 73.6631 176.304 71.0156 173.871 67.7141C172.119 65.3591 161.851 58.6983 159.578 60.1241C161.243 62.7771 163.494 63.5056 161.56 66.8108C163.445 68.8603 165.677 70.5671 167.813 72.3531C169.229 73.5361 171.638 76.6703 173.277 77.0618C175.941 76.0476 178.457 76.6911 181.188 77.1598ZM66.1906 83.3063C65.1776 85.8483 60.7238 93.248 58.9071 95.4055C59.6821 95.0215 60.8986 94.3743 61.6711 94.1063C63.7303 93.4013 65.6788 91.3331 67.5311 90.3946C72.1238 88.0673 76.8096 84.2678 81.3758 82.0941C80.9858 81.1206 79.3186 75.4843 78.9228 75.2296C72.9543 78.5263 71.8868 79.2928 66.1906 83.3063ZM161.397 191.446C165.438 189.007 172.041 182.999 175.438 179.89C174.755 178.297 174.136 175.866 173.646 174.139C169.137 176.563 165.094 181.02 160.649 183.523C160.198 183.777 157.711 183.661 156.765 183.776C156.005 184.364 155.458 185.814 155.025 186.737C156.862 188.486 158.941 190.787 161.397 191.446ZM174.702 123.773C175.976 127.244 176.301 129.653 176.774 133.28C178.488 134.492 179.087 134.987 180.411 136.654C181.722 138.304 184.159 142.076 186.124 138.941C186.352 136.702 186.252 134.679 186.126 132.442C185.993 131.559 185.841 131.029 185.6 130.175C182.879 126.423 180.987 123.818 181.234 119.13C179.428 120.066 177.382 122.292 174.702 123.773ZM43.0956 143.141C42.9963 142.304 41.7106 137.448 41.4173 136.169C40.1193 130.731 39.0306 125.205 39.6101 119.591C39.7998 117.754 42.0161 112.696 41.0418 111.196L40.6723 111.179C36.9388 114.676 35.0558 124.954 35.0341 129.947C35.0256 131.945 34.7128 137.78 35.5188 139.545C37.9076 140.928 41.7871 142.323 43.0956 143.141ZM55.4421 106.418C57.8698 106.702 60.0618 107.066 62.4716 107.482C66.7106 100.485 68.3306 95.5973 75.5331 90.798C77.5991 89.4213 82.6088 87.2716 83.0101 85.8751C82.8163 85.1898 82.9728 85.3856 82.4758 84.9746C77.2716 87.9453 55.3751 99.8251 54.0948 104.384C53.9218 105 53.9161 105.54 54.1893 106.124C54.7801 106.395 54.8033 106.413 55.4421 106.418ZM90.3263 149.53C89.8838 149.934 89.5221 150.188 88.9508 150.105L89.0278 149.343C88.4931 148.468 87.8713 147.382 87.3046 146.55C86.8223 153.467 86.1471 153.587 89.5366 159.515C96.4878 159.101 103.437 158.625 110.309 157.453C102.602 156.656 100.207 159.859 99.1748 149.466C96.2591 149.856 93.1898 150.378 90.3263 149.53ZM112.104 47.5353C117.929 46.7363 123.67 46.5061 129.497 47.3236C130.442 47.4563 131.393 47.7818 132.33 47.7298C131.78 47.1281 125.141 43.5183 123.973 42.8463L123.794 42.7496C122.054 41.8293 118.705 40.9261 116.762 40.4718C112.227 39.4116 106.891 41.5663 102.491 42.9288C102.918 43.4873 110.68 46.7761 112.104 47.5353ZM184.758 112.771C184.571 114.084 184.153 115.874 183.652 117.113C182.061 123.434 184.419 123.399 186.306 128.436C187.035 130.096 187.706 131.43 187.811 133.279C188.122 134.386 188.062 136.98 188.022 138.202C189.234 137.702 190.613 136.653 191.619 135.828L191.611 135.705C191.377 132.215 187.533 107.628 186.324 106.575C185.803 108.482 185.445 111.108 184.758 112.771ZM41.8381 89.2776C44.8583 86.1216 43.6428 85.1081 48.9178 80.9958C50.6358 79.3151 54.8511 68.5351 56.6076 65.6883C57.4906 64.3071 59.9596 60.7716 59.3903 59.2531C54.9428 62.1441 40.4481 81.1088 40.7391 88.5413C40.7501 88.8208 41.4921 89.1561 41.8381 89.2776ZM68.0946 151.835C68.9898 153.807 72.5821 158.122 74.1923 159.721C77.0403 159.901 81.4183 159.781 84.2731 159.703C83.0913 154.869 78.9468 150.891 74.7231 148.435C73.8278 147.914 71.8756 147.276 70.8091 146.839C70.1568 148.513 69.0828 150.322 68.0946 151.835ZM63.7053 166.021C64.3166 167.699 67.0113 173.204 68.6886 173.865C70.3486 174.518 73.5333 174.921 75.3011 175.431C79.7761 176.72 86.2611 177.973 90.4241 179.656C88.6408 177.916 86.6678 175.557 84.3096 175.006C82.4758 174.955 81.6111 174.831 79.8216 174.531C73.7358 174.589 71.5901 167.586 70.0566 162.816C67.9668 162.553 66.3043 162.719 63.8483 162.288C63.9143 163.851 63.9083 164.475 63.7053 166.021ZM128.442 83.5783C130.37 84.3868 137.318 87.6846 138.633 87.3538L138.887 86.9348C141.764 79.3775 137.439 76.0591 130.733 73.7348C129.888 73.4421 129.035 73.1733 128.176 72.9291C128.872 75.7796 128.63 80.5311 128.442 83.5783ZM99.8371 56.1051C104.465 55.2953 118.262 58.1423 121.702 56.5421L121.77 56.1361C120.878 55.1228 120.079 55.6496 119.288 55.1501C116.563 53.4273 111.646 51.3508 108.441 51.5201C100.004 54.6988 95.5063 54.7283 93.9483 64.7848C95.8438 63.7801 98.0356 63.0311 100.06 62.2843C99.8911 60.4636 99.3291 57.6716 99.8371 56.1051ZM74.6953 181.103C81.7983 185.3 87.9233 186.688 95.7956 188.791C96.7566 187.927 97.0516 187.177 97.5826 186.023C92.9253 181.883 85.9583 181.051 80.1391 179.823C77.1046 179.183 73.5571 178.077 70.5688 177.184C72.0091 179.494 72.2191 179.966 74.6953 181.103ZM197.492 153.073C204.095 147.645 204.708 141.965 206.013 133.731C206.27 132.109 206.162 129.331 205.764 127.765C205.184 125.89 204.14 121.169 203.33 119.676C202.519 122.311 200.708 127.581 200.738 130.112C200.778 133.511 202.606 137.92 201.834 141.575C200.998 145.535 198.871 149.036 197.492 153.073ZM177.065 156.199C175.235 157.981 175.075 160.195 173.788 162.211C172.582 164.099 170.771 166.334 169.297 168.02C167.793 169.716 166.185 171.318 164.483 172.817C162.885 174.231 157.786 177.737 157.199 179.101L157.382 179.449C158.031 179.315 166.822 172.935 167.528 172.073C170.945 167.899 174.833 165.276 178.843 161.712C181.499 159.352 185.26 152.631 185.974 149.015C186.132 148.212 185.681 147.644 185.189 147.1C183.245 149.968 179.825 154.051 177.065 156.199ZM47.6391 142.937C48.2261 142.506 48.9083 141.955 48.8383 141.12C48.3166 134.905 46.6121 123.268 45.3321 117.448L43.5121 115.873C40.6676 120.641 42.5701 128.962 43.7708 134C44.3133 136.276 45.6128 141.626 47.6391 142.937ZM135.017 192.135C134.424 192.866 133.469 193.829 133.409 194.693C134.028 195.366 134.361 195.257 135.44 195.418C140.748 196.154 144.344 195.514 148.693 192.236C150.055 191.209 152.853 188.565 152.24 186.621C151.611 186.146 151.911 186.259 151.091 186.223C145.035 188.849 141.444 190.408 135.017 192.135ZM57.9813 77.3936C59.4253 76.7018 59.7443 76.4066 60.9698 75.3441C64.9596 71.5696 65.7538 67.8298 67.5916 62.9483C66.6348 62.7521 65.7971 62.4783 64.8668 62.1896C60.7251 66.3896 56.3278 71.7188 54.5446 77.4293L54.8566 78.1888C55.9941 78.4891 56.7711 77.6238 57.9813 77.3936ZM136.27 182.723C137.436 183.472 139.11 184.629 140.339 185.153C142.5 183.897 145.556 182.219 147.525 180.803C144.799 177.872 143.861 176.454 140.046 174.617C138.2 174.444 136.616 174.879 134.79 175.212C135.268 177.718 135.761 180.222 136.27 182.723ZM156.517 168.193C156.767 170.318 156.906 172.778 157.078 174.934C161.968 172.232 169.77 164.161 171.977 158.742L168.418 159.728C168.046 159.916 164.589 162.548 163.986 162.992C161.539 164.786 159.049 166.52 156.517 168.193ZM33.9546 118.111C34.8421 116.1 35.6416 114.079 36.5606 112.066C37.2856 110.478 39.4188 106.927 39.7728 105.61C40.4306 101.604 41.5048 97.2901 44.3936 94.2876C43.5361 93.9243 42.5086 93.4566 41.6368 93.1851C40.4963 93.6013 38.0431 94.3428 37.7218 95.4106C36.2366 100.343 33.8428 113.385 33.9546 118.111ZM83.5363 80.8456C87.2211 79.0398 88.3451 77.7236 92.5913 76.0718C95.6828 74.1796 97.7173 73.5543 100.895 72.1238C98.2621 71.9718 87.3771 71.2018 85.3193 71.5156C84.0518 72.0906 83.1903 72.3383 82.6616 73.7203C81.9293 75.6351 82.9006 78.9491 83.5363 80.8456ZM124.705 64.1133C127.973 64.2703 128.875 64.5208 132.008 65.5481C134.093 65.6063 135.294 66.6778 137.075 67.6226C138.523 65.6868 139.583 63.6871 141.124 61.9321C141.41 61.6056 141.302 61.8878 141.31 61.3493C140.95 61.2478 140.586 61.1658 140.217 61.1036C138.362 60.7978 124.783 59.7616 123.77 60.4841C123.445 61.7513 122.875 62.7043 123.075 63.7323C123.621 64.1578 124 64.0888 124.705 64.1133ZM186.852 86.2696C186.391 85.1366 186.191 83.6606 185.411 82.6246C183.504 80.0928 177.055 76.2551 174.088 78.4506C176.698 82.2121 181.69 86.2276 184.611 90.0158C185.372 91.0033 186.524 93.2953 187.298 93.5763C187.204 90.3943 187.569 89.7763 186.852 86.2696ZM101.573 149.139C101.889 150.233 102.741 153.524 103.152 154.339C105.119 155.075 110.62 154.124 112.702 153.571C113.364 152.445 115.918 148.324 116.158 147.345C115.948 147.163 115.995 147.128 115.814 147.129C112.593 147.427 104.771 148.43 101.573 149.139ZM123.144 160.141C122.862 162.087 122.749 163.338 121.796 165.103C125.891 166.456 128.35 164.869 131.793 163.714C134.124 162.933 139.064 162.762 139.61 159.234L128.617 159.912C126.989 159.993 124.725 160.168 123.144 160.141ZM150.669 65.6666C148.706 67.1841 146.519 68.7556 144.676 70.3723C146.61 70.2621 148.126 70.2323 150.063 70.2686C151.599 70.2698 153.313 70.2273 154.828 70.3786C153.842 69.1508 151.87 66.5891 150.669 65.6666ZM161.082 86.0168C160.694 86.7301 160.213 87.3596 160.324 88.1086C161.094 88.2096 165.369 87.1828 166.393 86.9098L166.463 86.3933L165.724 85.4896C164.243 86.1183 162.674 86.3598 161.082 86.0168ZM97.3401 53.3741L100.668 51.3506L103.735 49.8183C101.773 49.6658 100.246 49.2766 98.6741 49.1303L97.3401 53.3741ZM86.3501 84.4111C88.1393 83.4156 100.34 77.0138 100.966 75.9741C100.505 75.6041 100.765 75.6931 100.156 75.7216C98.9833 76.2268 96.4891 77.0978 95.5768 77.5226C93.9718 78.2696 85.9553 82.5193 85.4268 83.6346C85.7128 84.2868 85.5326 84.0653 86.3501 84.4111ZM59.2503 141.153C59.2611 141.79 59.1851 143.21 59.5278 143.657C62.6473 143.523 62.4248 145.147 64.5618 146.558C64.3941 144.799 64.6778 141.575 64.8053 139.722C63.0283 140.02 61.0133 140.652 59.2503 141.153ZM50.2798 130.195C51.1253 128.619 53.3163 125.225 53.2561 123.771C53.0033 123.4 52.8936 123.189 52.5328 122.909C51.4461 122.588 49.7983 121.439 48.7833 120.796C48.6656 123.38 49.7336 127.544 50.2798 130.195ZM117.598 187.054C118.584 188.203 122.041 190.065 123.603 191.256C125.754 190.915 129.678 190.344 131.629 189.675C132.331 189.391 132.395 189.394 132.874 188.837C132.801 188.165 132.935 188.453 132.414 187.967C130.852 187.439 119.431 186.923 117.598 187.054ZM156.42 82.0618L156.9 82.1706L157.319 81.8886C157.62 80.6818 157.462 78.9546 157.411 77.6708C155.191 77.0618 152.271 75.7048 151.136 78.4251C152.893 79.8756 154.488 80.8443 156.42 82.0618ZM123.926 174.516C127.614 174.437 128.108 174.387 131.487 172.946C130.966 171.418 130.807 169.699 130.59 168.09C127.549 168.496 122.058 168.205 120.039 168.603C119.701 169.247 119.33 169.999 118.976 170.622C119.34 171.007 122.895 173.612 123.926 174.516ZM104.669 191.275C106.082 192.321 118.036 191.84 120.886 191.97C118.679 190.679 114.819 186.317 112.681 187.264C110.131 189.007 107.943 189.602 105.094 190.69C104.927 190.92 104.786 191.115 104.669 191.275ZM169.147 79.0376C169.205 78.1821 169.328 77.9216 168.653 77.1906C167.827 76.2971 165.463 74.0768 164.451 73.6248C164.742 77.0291 163.716 78.8076 169.032 79.0496C169.07 79.0456 169.109 79.0416 169.147 79.0376ZM141.83 68.4538C143.998 66.9411 146.067 65.6506 148.189 64.2056C147.643 63.7656 145.769 62.1978 145.265 61.9528C143.928 63.4798 140.434 67.1586 140.135 68.9468L140.4 69.3368C141.086 69.2398 141.311 68.9276 141.83 68.4538ZM100.989 185.491C101.827 186.634 102.713 187.791 103.443 189.001C105.099 188.541 108.798 187.564 110.114 186.577C105.653 185.341 106.142 186.033 102.301 182.699L100.989 185.491ZM94.4418 69.2261C96.4721 69.2946 98.5001 69.4096 100.525 69.5711C100.385 68.5611 100.282 66.3503 99.8693 65.6288L99.2938 65.4943C97.6623 66.0768 93.2771 67.3508 92.5748 68.7583C93.0806 69.2128 93.7221 69.1636 94.4418 69.2261ZM43.5041 90.3065C44.0666 90.6123 46.0108 91.8958 46.4531 91.8438C47.1456 90.2453 47.8661 86.1381 48.1058 84.3156L47.8306 84.2483C46.2833 86.1863 45.0193 88.4878 43.5041 90.3065ZM68.3293 184.068C67.4823 183.018 62.6788 176.145 62.2076 175.87L62.2641 181.692C63.6383 182.319 67.0096 184.049 68.3293 184.068ZM137.381 51.8148C136.894 52.9966 136.536 53.8343 135.933 54.9561C137.677 55.5458 143.822 58.2088 144.905 58.3371C145.366 57.4073 146.062 56.1086 146.391 55.1601C144.326 54.4406 142.268 53.7008 140.217 52.9411C139.605 52.7096 137.858 51.9271 137.381 51.8148ZM79.9571 71.1421C78.3426 71.0801 76.8783 71.0176 75.2588 71.0691C72.0491 71.7138 71.4898 74.2346 70.3498 76.9881L73.1068 75.1878C75.1223 74.0048 77.9753 72.1438 79.9571 71.1421ZM53.5863 81.1178L53.1551 81.1358C51.9693 82.7146 50.1118 87.181 50.2626 89.0553C54.6073 87.115 55.0713 85.9408 53.5863 81.1178ZM104.804 175.396C106.511 178.91 109.812 180.722 112.628 183.319C113.214 183.858 113.754 184.118 114.558 184.061C116.466 182.609 117.984 180.896 119.995 179.856C120.27 179.552 121.629 178.428 122.084 178C115.699 177.879 110.93 177.691 104.804 175.396ZM64.8588 155.444C65.1666 154.557 65.4218 154.085 65.0526 153.194C64.5088 151.883 61.5731 148.107 60.2996 147.609C59.8631 148.999 59.7908 149.112 60.4391 150.44C61.0131 151.615 63.1933 155.018 64.3418 155.547L64.8588 155.444ZM126.05 151.67C128.307 151.286 132.536 149.072 132.742 146.524C132.295 146.072 132.522 146.196 131.74 146.172C130.241 146.801 125.677 149.722 125.378 151.356C125.816 151.701 125.584 151.64 126.05 151.67ZM204.391 115.533C204.872 117.472 205.751 122.325 206.651 123.743C207.606 120.27 207.732 108.294 206.933 104.756C205.986 105.855 205.763 106.207 205.221 107.561C204.444 110.295 203.972 112.664 204.391 115.533ZM153.326 82.6558C151.728 81.3061 151.683 81.4791 150.061 79.7421C149.027 80.7621 146.224 83.1996 146.058 84.5218C147.291 85.1901 151.912 83.2256 153.326 82.6558ZM87.7206 162.473C89.3216 164.88 94.6336 171.043 97.0491 172.315L98.0028 172.121C97.8496 171.75 88.7976 163.31 87.7206 162.473ZM70.4111 144.656C70.7813 143.377 71.3511 141.661 70.7428 140.382C69.9058 138.622 68.4123 138.418 66.8008 139.312C66.3366 140.093 66.4803 139.875 66.6721 140.984C67.9561 142.447 68.8213 143.499 70.4111 144.656ZM65.1136 137.306C65.6873 136.365 65.5218 133.37 65.5773 132.072C65.5518 131.754 65.5118 131.438 65.4573 131.124C65.1293 129.237 63.6813 127.713 62.1846 126.628C62.4778 129.647 63.8361 134.546 65.1136 137.306ZM89.1971 174.622C89.4643 174.85 89.7351 175.075 90.0093 175.295C91.8141 176.741 94.2776 177.82 96.6201 177.558L96.8651 177.226C96.5093 176.131 94.9641 174.868 94.0801 174.131C92.8936 174.149 90.2936 174.233 89.1971 174.622ZM52.5326 137.213C53.2346 138.714 53.6251 139.598 54.8503 140.735L55.3391 140.563C55.8341 139.367 54.7653 132.821 54.0263 132.154C53.4923 133.852 52.9673 135.485 52.5326 137.213ZM53.4386 109.052C53.1598 110.195 54.8833 119.086 55.2133 120.773C55.5916 119.993 56.6268 117.736 57.0521 117.128C58.7861 114.642 59.5018 112.254 60.9551 110.164C58.4763 109.952 55.7831 109.859 53.4386 109.052ZM103.949 196.709L104.46 196.596C104.362 193.87 99.3661 194.197 97.3081 194.088C96.6278 194.814 96.6883 194.529 96.6363 195.33C97.8431 196.407 102.085 196.327 103.949 196.709ZM147.523 77.7011C145.835 76.6876 144.063 75.1883 142.504 73.9418C141.39 73.2968 139.872 72.8471 138.989 74.0958C138.951 75.0976 140.322 76.5018 140.974 77.3153C142.578 79.3163 142.781 80.6956 142.975 83.1671C145.052 81.2048 145.903 80.0793 147.523 77.7011ZM62.5018 56.2978C62.5413 57.5103 62.5016 58.5781 63.0043 59.6968C64.6878 58.3848 66.4931 56.4493 68.3543 54.9298C67.1298 54.7476 65.7413 54.7321 64.4923 54.6856C63.7946 55.1406 63.1348 55.7486 62.5018 56.2978ZM163.461 159.153C161.81 158.748 159.858 157.999 158.224 157.421C156.927 156.985 155.695 156.372 154.564 155.601C153.849 157.312 155.271 163.111 155.713 165.028C158.203 163.429 162.597 161.605 163.461 159.153ZM159.62 73.3233C159.992 74.7146 160.22 76.8338 161.979 76.8003C162.127 74.7626 162.052 73.6281 159.62 73.3233ZM180.865 90.3625C180.194 89.1518 180.067 88.9326 179.025 88.0421C178.832 89.0041 179.99 89.9658 180.457 90.7523C181.04 91.7798 184.069 95.9458 185.004 96.2193L185.126 96.5196C185.031 95.2181 181.816 91.492 180.865 90.3625ZM187.734 146.196C188.465 145.222 190.781 141.414 190.614 140.318C190.322 140.233 190.27 140.175 189.995 140.203C187.133 141.778 185.058 142.866 187.734 146.196ZM109.452 168.188C108.644 170.319 108.152 171.577 107.088 173.587C108.782 173.948 110.436 174.512 112.07 173.999C113.5 173.321 114.16 173.027 115.46 172.082C114.328 171.006 110.895 168.697 109.452 168.188ZM87.3281 192.282C87.7023 194.26 92.2266 194.804 93.9921 195.076C93.9808 194.625 94.0748 193.988 93.7158 193.811C91.8638 192.893 89.4753 192.954 87.3281 192.282ZM156.497 42.6183C155.974 43.2456 155.423 43.7283 155.36 44.4986C155.582 44.6756 155.579 44.7203 155.83 44.7996C156.603 44.2381 157.008 44.1641 157.25 43.4043C156.957 42.9108 156.978 42.9336 156.497 42.6183ZM88.4973 49.1533C85.3556 49.0521 79.0586 51.9756 76.4223 53.6538C79.1266 53.8211 82.0558 53.8786 84.6863 54.4856C85.8576 52.6253 87.2393 50.9556 88.4973 49.1533ZM66.1878 155.362C65.0023 157.817 64.9111 159.175 67.9183 159.75C68.4738 158.787 66.9238 155.923 66.1878 155.362ZM91.0626 65.6401C90.7096 64.6446 90.3616 63.2088 89.5676 62.6251C88.5711 64.0026 85.3948 67.3151 85.4061 68.3671C85.8606 68.4033 85.7273 68.4746 86.0601 68.3148C87.6883 67.3791 89.3381 66.3716 91.0626 65.6401ZM184.863 160.68C186.243 159.759 191.399 156.956 190.068 154.809C189.947 154.613 189.763 154.483 189.547 154.415C188.574 155.565 184.463 159.782 184.463 160.699L184.863 160.68ZM106.4 59.7811L106.683 59.5241C105.939 59.0651 103.218 59.2131 102.284 59.2478C102.641 60.2191 102.45 60.1621 103.169 60.6696C104.105 60.8116 105.459 60.1486 106.4 59.7811ZM172.079 85.8498C171.768 84.9678 168.978 82.9353 168.11 82.4291C168.399 83.5043 168.687 85.0991 169.409 85.8676C170.494 86.4013 170.827 86.2011 172.079 85.8498ZM98.7578 191.103L98.9383 191.601C99.7553 191.927 100.155 191.906 101.011 191.949L100.896 191.278C100.12 190.859 99.7636 191.05 98.7578 191.103ZM69.3901 146.269C67.8223 145.387 67.3861 144.965 66.3843 143.476C65.3971 145.313 66.0776 147.66 66.5531 149.599L66.7441 149.876C67.4748 149.322 68.7708 147.165 69.3901 146.269ZM151.195 59.1891L151.632 58.9261C151.266 58.1898 150.204 57.6831 149.422 57.1728C148.614 57.8761 148.533 57.7186 148.318 58.5906C148.906 59.1238 150.262 59.0766 151.195 59.1891ZM169.933 79.6441C170.057 80.4811 169.997 80.6016 170.879 81.1818C172.083 81.9731 173.358 82.7111 174.578 83.4996C173.618 81.8888 171.847 79.9713 169.933 79.6441ZM36.1598 156.639C36.5721 158.056 37.2663 160.197 38.8871 160.616C38.3596 159.632 37.1221 156.931 36.1598 156.639ZM134.256 185.009C132.221 183.119 126.996 179.908 124.528 178.325C123.444 179.215 121.064 180.761 120.262 181.574L116.985 184.274C118.731 184.809 131.856 185.02 134.256 185.009ZM156.55 62.9851C156.8 64.1293 158.041 65.0771 159.048 65.6443C159.125 63.8691 158.24 63.0983 156.55 62.9851ZM81.1011 139.694C81.3121 141.174 82.9568 148.044 83.9551 148.862C84.0951 147.321 84.2183 145.779 84.3246 144.235C83.5923 142.959 82.2641 140.058 81.1011 139.694ZM171.042 88.5486C172.367 90.7393 182.696 109.216 183.728 110.051C184.01 109.003 184.372 106.75 184.674 105.454C183.467 103.71 182.173 102.321 180.963 100.603C178.147 96.6041 176.682 92.8946 174.886 88.4448C173.672 88.5086 172.236 88.6251 171.042 88.5486ZM170.063 157.724C171.068 157.658 172.052 157.118 172.979 156.689C175.006 154.632 174.734 149.723 177.066 146.757C178.093 145.451 180.669 143.167 180.863 141.908C180.185 140.325 178.318 138.991 177.139 137.256C176.45 143.015 176.02 147.242 173.233 152.551C172.592 153.772 170.406 156.961 170.063 157.724ZM163.435 133.206C162.138 134.878 158.742 136.643 158.314 137.628L158.576 137.92C161.753 137.451 163.034 136.985 163.719 133.631L163.435 133.206ZM128.542 195.446C126.18 194.502 124.866 193.719 122.314 194.1C119.686 194.321 108.466 194.611 107.304 195.444L107.277 195.804C109.066 197.544 110.774 196.923 113.19 197.154C119.261 197.57 122.742 197.016 128.542 195.446ZM49.6283 92.0188C49.2611 92.5928 48.8913 93.0978 49.1783 93.7386C50.3981 93.6286 53.3433 90.0996 54.1836 89.0496C52.9566 89.2218 50.7998 91.2025 49.6283 92.0188ZM131.535 179.437L132.379 180.141L132.801 180.045C133.172 178.785 132.691 177.669 132.28 176.451C131.727 176.164 132.011 176.206 131.4 176.317C130.498 176.444 129.393 176.467 128.777 177.084C128.843 178.164 130.602 178.904 131.535 179.437ZM177.828 152.439C179.698 152.148 182.604 147.168 183.748 145.443L183.513 145.056C181.282 144.765 178.347 150.72 177.828 152.439ZM109.848 183.669C109.629 182.926 104.858 178.86 104.221 178.456C104.021 179.145 103.786 179.444 104.223 180.104C105.31 181.746 107.943 183.327 109.848 183.669ZM99.0591 198.514C100.011 200.159 105.268 201.079 107.42 201.781C106.531 198.224 102.217 199.141 99.0591 198.514ZM144.813 46.7578C143.025 46.7366 142.044 46.6846 140.293 47.0968L139.199 47.8208C142.609 49.6001 146.489 50.6581 150.291 51.2401L150.859 51.0103C151.407 50.3333 151.456 48.5331 151.59 47.5433C149.584 47.4116 146.801 47.0776 144.813 46.7578ZM157.426 98.3023C157.497 98.9093 157.773 99.5491 158.369 99.7446C161.706 100.839 165.922 108.854 168.264 110.278C168.442 109.189 168.121 106.974 167.784 105.903C166.418 101.562 161.524 99.4583 157.426 98.3023ZM48.8138 118.482C49.6506 119.04 51.3493 120.301 52.2386 120.472C52.0533 118.657 50.1906 108.063 48.7651 107.599C47.5058 108.857 48.0053 116.802 48.8138 118.482ZM59.3871 88.4536C56.9486 90.5178 54.6793 92.7791 52.4033 95.0121C49.8321 97.5348 50.1118 98.1276 51.4343 101.28C51.8501 101.109 52.8671 100.438 53.0341 100.076C53.9128 98.1723 59.7581 90.0046 59.5416 88.6481L59.3871 88.4536ZM70.1906 61.8518L76.3458 62.0318C78.3858 62.0173 80.0636 62.1466 81.9798 61.4203C82.7001 60.8783 83.2836 58.6071 83.6106 57.6238C81.2566 56.6561 75.3593 55.6521 72.7931 55.7328C71.6348 58.0583 71.0648 59.4001 70.1906 61.8518ZM59.1346 139.941C60.4556 139.382 62.0561 138.775 63.4421 138.464C62.3893 134.38 60.4851 130.039 59.7243 125.74C59.5528 124.77 57.1056 124.454 56.2166 124.271C56.3651 126.425 58.3558 138.395 59.1346 139.941ZM71.7916 162.888C73.3391 166.737 75.3463 172.205 79.8813 173.239C80.9011 173.376 82.0106 173.533 83.0416 173.477L82.9646 173.356C81.8311 171.527 76.2081 166.586 74.5626 164.462C73.9066 163.615 72.9496 162.885 71.7916 162.888ZM154.45 53.0548C154.849 55.1251 155.308 56.4541 155.983 58.4623C158.368 57.3238 159.605 56.7558 162.294 57.6561C163.542 58.0736 165.764 59.1781 166.938 59.0771C166.579 58.4528 163.189 54.7603 162.468 53.9593C159.69 53.3746 157.26 53.2408 154.45 53.0548ZM172.384 126.235C167.252 130.05 167.925 129.707 165.061 135.779L165.216 136.023C165.645 135.928 166.081 135.848 166.493 135.699C169.024 134.628 171.59 133.644 174.188 132.749C173.924 130.714 173.481 128.32 172.844 126.371L172.384 126.235ZM117.309 49.3846L117.405 49.9113C119.641 50.4931 132.519 54.3561 133.778 53.8591C134.136 52.9478 134.627 52.0783 134.374 51.1741C132.813 49.6803 123.239 49.1416 120.737 49.2036C119.593 49.2378 118.45 49.2983 117.309 49.3846ZM84.8493 162.776C82.0628 162.921 79.5263 163.024 76.7358 162.831C79.0051 165.047 85.4736 171.745 87.6958 173.065C89.6266 172.652 90.4561 172.522 92.4258 172.414C90.1718 169.022 87.3098 167.523 84.8493 162.776ZM153.825 168.945C151.308 170.168 148.251 171.523 145.56 172.315C147.408 173.613 147.945 173.926 149.989 174.933C150.933 175.64 152.706 177.15 153.747 177.281C156.065 176.513 154.787 171.099 154.494 169.146C154.108 168.97 154.228 168.976 153.825 168.945ZM195.703 132.617C196.626 131.256 196.85 130.774 197.264 129.181C196.117 125.708 193.39 117.838 191.466 114.93C192.136 120.512 192.687 126.043 193.713 131.575C193.9 132.583 194.063 133.632 194.164 134.651L195.703 132.617ZM175.57 172.583C176.186 173.758 177.261 175.695 177.759 176.864L178.139 177.315C179.759 177.043 188.289 165.126 188.462 163.26C188.322 163.173 188.075 162.998 187.935 162.957C186.034 163.429 177.2 170.891 175.57 172.583ZM48.6161 170.4C50.6653 174.241 55.3188 179.051 59.4871 180.46C59.4148 178.438 59.4663 176.441 59.5013 174.418C57.4968 173.725 49.9123 170.532 48.6161 170.4ZM198.557 135.396C196.629 140.572 193.209 146.662 192.094 151.754C191.942 152.448 192.652 153.904 192.972 154.606L193.408 154.606C195.722 149.135 199.018 144.326 198.848 138.186C198.822 137.222 198.905 136.296 198.557 135.396ZM90.9578 49.5148C89.4936 50.6428 87.6081 53.5393 86.2898 55.1961C88.0028 56.5488 88.3781 56.4648 90.1946 58.1953L93.7126 55.2976L95.3186 48.5846C93.3026 48.8248 92.7678 48.2786 90.9578 49.5148ZM156.943 85.0528C153.332 85.9528 147.063 88.461 143.932 88.5038L143.625 88.746C143.934 89.175 146.687 90.3518 147.372 90.6803C150.533 92.7365 151.478 93.4933 154.965 94.7391C155.261 93.4708 157.222 85.7536 156.943 85.0528Z" fill="#333333"/>
<path d="M204.714 152.396C205.757 152.355 205.5 151.486 207.763 151.459C204.334 157.645 202.246 158.592 197.485 163.219C197.382 162.739 197.048 162.016 196.85 161.541C200.37 158.056 202.55 156.699 204.714 152.396Z" fill="#333333"/>
<path d="M204.797 150.504L204.38 150.549L204.294 150.351C204.133 149.978 205.31 147.755 205.565 147.33C208.014 143.26 208.752 139.198 209.44 134.606C209.537 137.004 209.826 144.787 209.088 146.776C207.708 148.075 206.276 149.319 204.797 150.504Z" fill="#333333"/>
<path d="M190.043 169.671C189.871 169.35 189.815 169.185 189.686 168.851C190.439 167.394 192.139 163.19 193.241 162.408C193.615 162.776 194.234 164.67 194.548 165.382C193.249 166.869 191.685 168.566 190.043 169.671Z" fill="#333333"/>
<path d="M221.568 113.688L221.781 113.861C224.045 115.727 224.283 117.914 225.625 119.73L225.987 119.689L225.759 119.872L226.008 119.683C226.066 117.934 226.043 118.816 225.243 117.322C224.799 116.492 223.856 114.921 223.893 114.022C226.731 117.537 226.128 119.084 227.588 122.702C227.116 122.796 226.633 122.884 226.166 123.004C224.883 119.354 223.614 116.953 221.568 113.688Z" fill="#333333"/>
<path d="M103.589 79.455C109.895 78.485 113.928 79.2823 119.821 81.6143C120.523 81.892 122.436 82.429 122.685 82.544C124.14 83.5458 125.88 84.7388 127.43 85.5823C128.912 86.389 135.837 87.765 136.252 89.206C134.912 89.9558 132.58 89.5305 131.932 90.4438C132.106 94.39 134.586 92.3365 135.531 92.9023C135.771 95.102 133.453 94.394 136.883 97.178C137.778 98.162 139.242 98.2763 140.501 98.333C141.215 98.362 141.929 98.3795 142.643 98.3855L142.867 99.2505C142.742 99.428 142.553 99.7168 142.412 99.8653C141.282 99.8338 136.984 99.5525 136.222 99.765C135.79 100.5 136.232 105.021 135.808 107.114C135.71 107.72 135.742 108.244 135.378 108.608C135.111 107.332 135.148 104.719 134.946 103.055L134.623 102.903C133.598 103.463 132.769 104.762 131.78 105.399C128.621 107.43 125.696 108.769 122.233 110.096C123.601 110.946 124.207 111.296 125.703 111.947C127.502 110.945 128.619 110.128 130.289 108.91C131.748 109.964 134.282 111.674 135.309 113.015C135.865 114.526 137.471 115.503 138.773 116.35L138.647 116.235L138.669 116.507C137.701 116.598 137.48 116.371 136.526 116.407C134.181 114.976 132.51 111.403 129.872 111.459C129.362 111.47 127.303 112.604 127.853 113.564C129.639 116.681 135.275 116.38 133.354 120.83C130.294 127.918 127.743 136.172 123.267 142.446C126.928 142.536 129.79 141.469 132.948 139.738C131.477 131.282 136.715 130.782 143.365 132.417C145.981 131.881 149.737 126.615 147.411 123.689C147.385 123.269 147.191 122.383 147.107 121.931C147.014 120.911 146.4 119.489 146.337 117.839C146.196 114.155 146.77 112.787 149.103 110.04C150.767 109.486 150.729 109.263 151.705 107.688C150.964 112.286 144.86 116.085 150.129 123.486C151.169 124.759 151.522 125.181 152.276 126.681L151.051 127.39L150.413 127.201C150.286 127.325 146.936 132.312 146.826 132.537L146.967 132.934C145.8 133.047 145.407 133.946 144.847 134.884C142.035 135.392 139.958 137.982 137.555 139.465C136.602 140.054 135.582 140.323 135.004 141.234C134.203 141.165 133.261 141.739 132.737 142.344C130.142 142.51 128.08 144.683 122.863 144.378C121.328 143.938 120.302 143.711 118.727 143.508C115.494 140.492 114.058 140.509 112.498 136.18C109.741 138.621 106.474 141.71 102.921 142.577C102.126 142.33 100.777 141.788 100.058 141.987C99.9046 140.721 98.1346 139.39 96.8171 139.752L96.4333 139.336C95.6101 139.091 95.0323 139.013 94.4533 138.397L93.8863 135.613C92.0221 134.293 90.1148 132.659 88.3253 131.202C88.4253 130.934 88.3146 130.015 88.2901 129.664C87.2376 127.961 87.6576 127.406 86.0226 126.38C86.1906 125.309 86.4868 124.241 86.6568 123.099C86.7861 123.111 87.0008 123.429 87.1183 123.568L87.4581 123.447C88.4733 122.474 88.5436 121.037 89.2721 119.877C89.7776 119.073 90.5883 118.832 90.7211 118.032L89.3291 117.655C90.0266 117.238 90.5096 117.238 91.3026 117.146C91.6286 116.282 91.2693 114.493 91.1388 113.497L90.9608 113.268C90.8223 112.639 90.9286 112.225 91.0156 111.59L91.1876 111.364C91.8411 109.252 92.8808 108.242 93.6846 106.615C95.9588 102.01 87.4736 101.963 85.7958 105.929C84.8541 105.181 84.8016 104.62 84.6836 103.506C86.9916 101.727 88.6613 101.36 91.5216 101.106L91.7216 100.762L91.3616 99.718C90.1858 99.674 89.7171 99.6773 88.5531 99.8205C88.5296 99.0458 88.7548 98.6453 89.0476 97.9425L89.3998 97.7015C89.9533 97.758 92.0198 97.2683 92.6843 97.13C94.8616 96.847 97.9113 96.109 100.09 95.5998C98.0478 90.013 98.0258 86.018 101.046 80.7503C101.959 80.7665 103.177 80.3235 103.589 79.455ZM96.6283 126.43C97.4978 126.238 99.5526 124.82 101.335 124.253C105.259 124.227 107.11 124.374 110.755 126.089C108.032 125.858 105.811 125.304 103.18 125.897C100.773 126.255 98.7666 127.175 97.0741 128.979C97.8353 130.65 98.7896 135.041 99.1431 136.936L100.181 139.937L103.268 140.662C107.748 139.09 110.112 134.217 113.381 134.773C115.207 135.719 115.267 139.969 119.522 141.474C121.032 138.481 122.697 135.648 124.259 132.487C119.518 126.306 111.55 117.563 103.712 115.141C102.135 114.654 96.6766 119.458 95.2171 120.616C95.8396 122.514 96.3116 124.458 96.6283 126.43ZM134.623 102.903L134.946 103.055C135.148 104.719 135.111 107.332 135.378 108.608C135.742 108.244 135.71 107.72 135.808 107.114C136.232 105.021 135.79 100.5 136.222 99.765C136.984 99.5525 141.282 99.8338 142.412 99.8653C142.553 99.7168 142.742 99.428 142.867 99.2505L142.643 98.3855C141.929 98.3795 141.215 98.362 140.501 98.333C139.242 98.2763 137.778 98.162 136.883 97.178C133.453 94.394 135.771 95.102 135.531 92.9023C134.586 92.3365 132.106 94.39 131.932 90.4438C132.58 89.5305 134.912 89.9558 136.252 89.206C135.837 87.765 128.912 86.389 127.43 85.5823C125.88 84.7388 124.14 83.5458 122.685 82.544C122.436 82.429 120.523 81.892 119.821 81.6143C113.928 79.2823 109.895 78.485 103.589 79.455C103.177 80.3235 101.959 80.7665 101.046 80.7503C98.0258 86.018 98.0478 90.013 100.09 95.5998C97.9113 96.109 94.8616 96.847 92.6843 97.13C92.0198 97.2683 89.9533 97.758 89.3998 97.7015L89.0476 97.9425C88.7548 98.6453 88.5296 99.0458 88.5531 99.8205C89.7171 99.6773 90.1858 99.674 91.3616 99.718L91.3796 99.463C91.9518 98.9938 92.9691 98.778 93.6403 99.1208C94.0113 99.8005 94.1261 99.9188 94.6658 100.479C96.7991 101.354 98.8376 99.969 99.7648 98.0553C101.298 97.7245 102.087 97.2995 103.315 98.0758C102.71 98.6405 101.983 99.1453 102.049 99.9715C103.112 100.187 106.94 97.7403 108.387 97.0153C113.51 94.448 118.086 93.919 123.404 92.1618C123.87 90.4355 124.246 88.8775 124.947 87.2253C128.424 89.4965 126.06 89.3663 127.536 91.0153C128.948 91.4995 129.255 91.4028 130.248 92.5078C130.37 93.028 130.427 93.12 130.252 93.6363C128.703 93.886 127.465 94.0515 125.898 94.1978C125.232 96.1368 122.759 104.127 121.549 105.076C118.982 105.639 116.062 103.912 114.852 104.422C115.072 104.893 119.08 107.481 119.909 107.35C125.674 106.438 130.472 103.651 133.655 98.7138C134.79 99.9433 134.852 101.289 134.623 102.903ZM135.114 138.524C137.146 137.738 139.424 136.052 140.81 134.384C139.16 134.376 137.487 134.456 135.837 134.516C135.608 135.825 135.389 137.232 135.114 138.524ZM124.282 127.932L126.551 130.33C128.142 126.978 128.984 123.041 130.541 119.387C127.738 116.757 123.341 114.33 120.296 111.803C119.804 111.395 118.455 111.216 117.822 111.257C114.821 112.16 112.05 113.02 109.194 114.329C115.297 118.458 119.712 121.972 124.282 127.932ZM96.1148 108.135C95.3436 109.172 94.5256 110.478 93.8013 111.571C95.5566 112.059 96.9716 112.389 98.7841 112.146C98.3163 110.929 96.9328 109.223 96.1148 108.135ZM98.6358 106.238C101.384 109.859 101.687 113.178 106.157 108.55C108.457 106.548 110.069 105.702 112.762 104.233C109.277 103.694 106.239 103.742 102.711 103.804C101.081 104.268 99.9401 105.173 98.6358 106.238ZM110.562 100.795C114.111 101.114 116.535 101.365 120.055 102.003C120.875 100.058 121.975 97.6235 122.579 95.6525L122.273 95.323C118.476 96.393 111.429 98.678 107.929 100.432L108.017 100.662C109.039 100.788 109.532 100.81 110.562 100.795ZM116.249 108.8C115.58 108.375 113.695 107.098 113.053 106.923C112.074 107.773 108.723 110.49 108.141 111.308L108.325 111.526C109.145 111.449 109.291 111.417 110.061 111.125L116.249 108.8ZM89.3696 124.64C88.2741 126.302 88.5881 126.688 88.9433 128.614C89.9343 129.454 92.6468 132.308 94.0013 133.547C94.1166 132.066 94.2076 130.583 94.2741 129.099C93.9373 126.69 93.7123 124.719 92.9873 122.378C91.7728 123.118 90.5668 123.873 89.3696 124.64Z" fill="#333333"/>
<path d="M101.334 124.253C105.258 124.227 107.109 124.373 110.754 126.088C108.031 125.857 105.81 125.304 103.179 125.896C101.667 125.684 101.77 125.551 101.334 124.253Z" fill="#333333"/>
<path d="M103.588 79.455C109.894 78.485 113.927 79.2823 119.82 81.6143C120.522 81.892 122.435 82.429 122.684 82.544C124.139 83.5458 125.879 84.7388 127.429 85.5823C128.912 86.389 135.836 87.765 136.251 89.206C134.911 89.9558 132.579 89.5305 131.931 90.4438C132.105 94.39 134.585 92.3365 135.53 92.9023C135.77 95.102 133.452 94.394 136.882 97.178C137.777 98.162 139.242 98.2763 140.501 98.333C141.214 98.362 141.928 98.3795 142.643 98.3855L142.867 99.2505C142.741 99.428 142.552 99.7168 142.411 99.8653C141.281 99.8338 136.984 99.5525 136.221 99.765C135.789 100.5 136.232 105.021 135.808 107.114C135.709 107.72 135.741 108.244 135.377 108.608C135.11 107.332 135.147 104.719 134.945 103.055L134.622 102.903C134.852 101.289 134.789 99.9433 133.654 98.7138C133.51 96.804 132.209 94.2105 130.251 93.6363C130.426 93.12 130.369 93.028 130.247 92.5078C129.254 91.4028 128.947 91.4995 127.535 91.0153C126.059 89.3663 128.423 89.4965 124.946 87.2253C121.727 82.879 110.241 93.0048 106.706 94.942C105.652 95.5198 104.343 97.257 103.314 98.0758C102.086 97.2995 101.297 97.7245 99.7642 98.0553C98.3557 97.8018 94.7725 98.3033 93.6397 99.1208C92.9685 98.778 91.9512 98.9938 91.379 99.463L91.361 99.718C90.1852 99.674 89.7165 99.6773 88.5525 99.8205C88.529 99.0458 88.7542 98.6453 89.047 97.9425L89.3992 97.7015C89.9527 97.758 92.0192 97.2683 92.6837 97.13C94.861 96.847 97.9107 96.109 100.089 95.5998C98.0472 90.013 98.0252 86.018 101.045 80.7503C101.958 80.7665 103.176 80.3235 103.588 79.455ZM102.415 94.9043C103.718 94.9133 104.467 94.027 105.32 93.1765C107.531 88.9115 112.708 84.8315 116.75 82.3318C113.961 81.146 106.313 80.0425 103.807 82.1748C103.356 85.762 103.341 91.736 102.415 94.9043ZM111.449 88.3838C110.637 88.9628 110.11 89.377 109.755 90.3855C110.443 90.021 111.315 89.4663 112.002 89.0565C113.897 88.2938 118.762 85.678 120.182 84.2538L120.147 83.854L119.213 83.549C116.157 84.3318 113.641 86.1653 111.449 88.3838Z" fill="#333333"/>
<path d="M134.945 103.054C135.008 102.44 135.079 100.935 135.356 100.508C135.795 101.699 135.803 105.689 135.808 107.113C135.71 107.72 135.741 108.243 135.378 108.607C135.111 107.332 135.148 104.718 134.945 103.054Z" fill="#333333"/>
<path d="M102.416 94.9043C101.66 94.9671 101.922 95.0393 101.267 94.7423C99.312 91.5921 99.172 83.3356 103.808 82.1748C103.357 85.7621 103.341 91.7361 102.416 94.9043Z" fill="#333333"/>
<path d="M116.75 82.3311C117.945 82.6476 118.182 82.8363 119.213 83.5483C116.157 84.3311 113.641 86.1646 111.449 88.3831C110.637 88.9621 110.11 89.3763 109.755 90.3848C109.194 91.1206 106.18 93.1121 105.32 93.1758C107.531 88.9108 112.708 84.8308 116.75 82.3311Z" fill="#333333"/>
<path d="M109.756 90.3855C110.111 89.377 110.639 88.9628 111.45 88.3838L112.004 89.0565C111.316 89.4663 110.444 90.021 109.756 90.3855Z" fill="#333333"/>
<path d="M149.103 110.04C150.767 109.486 150.728 109.263 151.705 107.688C150.964 112.286 144.859 116.085 150.128 123.486C151.169 124.759 151.521 125.181 152.276 126.681L151.051 127.39L150.412 127.201C150.286 127.325 146.936 132.312 146.825 132.537L146.967 132.934C145.799 133.047 145.407 133.946 144.846 134.884C142.035 135.392 139.958 137.982 137.554 139.465C136.601 140.054 135.582 140.323 135.004 141.234C134.203 141.165 133.261 141.739 132.737 142.344C130.141 142.51 128.08 144.683 122.862 144.378C121.328 143.938 120.301 143.711 118.727 143.508C115.494 140.492 114.058 140.509 112.498 136.18C109.741 138.621 106.474 141.71 102.921 142.577C102.126 142.33 100.777 141.788 100.058 141.987C99.9044 140.721 98.1344 139.39 96.8169 139.752L96.4331 139.336C95.6099 139.091 95.0321 139.013 94.4531 138.397L93.8861 135.613C92.0219 134.293 90.1146 132.659 88.3251 131.202C88.4251 130.934 88.3144 130.015 88.2899 129.664L88.3489 128.874C88.1346 128.455 88.0309 128.349 88.0741 127.914L88.5066 128.375L88.2629 128.275C88.5114 128.51 88.6096 128.547 88.9431 128.614C89.9341 129.454 92.6466 132.308 94.0011 133.547C94.1164 132.066 94.2074 130.583 94.2739 129.099C94.8704 128.682 96.3759 127.121 96.6281 126.43C97.4976 126.238 99.5524 124.82 101.334 124.253C101.771 125.552 101.668 125.685 103.18 125.897C100.773 126.255 98.7664 127.175 97.0739 128.979C97.8351 130.65 98.7894 135.041 99.1429 136.936L100.181 139.937L103.267 140.662C107.748 139.09 110.112 134.217 113.381 134.773C115.207 135.719 115.267 139.969 119.522 141.474C120.652 141.773 122.153 142.221 123.266 142.446C126.928 142.536 129.789 141.469 132.948 139.738C131.477 131.282 136.715 130.782 143.364 132.417C145.98 131.881 149.736 126.615 147.411 123.689C147.385 123.269 147.191 122.383 147.106 121.931C147.014 120.911 146.4 119.489 146.337 117.839C146.195 114.155 146.769 112.787 149.103 110.04ZM135.113 138.524C137.145 137.738 139.424 136.052 140.81 134.384C139.16 134.376 137.487 134.456 135.837 134.516C135.608 135.825 135.389 137.232 135.113 138.524Z" fill="#333333"/>
<path d="M132.948 139.738C131.477 131.282 136.715 130.782 143.364 132.417C142.773 133.314 142.061 134.553 140.81 134.384C139.16 134.376 137.487 134.456 135.837 134.516C135.608 135.825 135.389 137.232 135.113 138.524C134.274 139.325 134.052 139.368 132.948 139.738Z" fill="#333333"/>
<path d="M99.1437 136.936C95.8159 135.853 94.8134 131.737 97.0747 128.979C97.8359 130.65 98.7902 135.041 99.1437 136.936Z" fill="#333333"/>
<path d="M150.129 123.485C151.17 124.758 151.522 125.181 152.277 126.68L151.051 127.39L150.413 127.2C149.944 125.697 150.002 125.039 150.129 123.485Z" fill="#333333"/>
<path d="M91.1875 111.363C92.4022 111.963 92.4875 111.366 93.8012 111.571C95.5565 112.058 96.9715 112.388 98.784 112.145C99.1602 113.114 100.216 114.069 100.892 114.937L100.652 115.096C99.8602 115.613 98.864 116.145 97.9555 116.407C94.9227 117.285 89.0587 121.005 89.3695 124.64C88.274 126.301 88.588 126.687 88.9432 128.613C88.6097 128.546 88.5115 128.509 88.263 128.275L88.5067 128.375L88.0742 127.913C88.031 128.348 88.1347 128.454 88.349 128.873L88.29 129.663C87.2375 127.96 87.6575 127.405 86.0225 126.379C86.1905 125.308 86.4867 124.241 86.6567 123.098C86.786 123.111 87.0007 123.429 87.1182 123.568L87.458 123.446C88.4732 122.473 88.5435 121.036 89.272 119.876C89.7775 119.072 90.5882 118.831 90.721 118.031L89.329 117.654C90.0265 117.237 90.5095 117.237 91.3025 117.145C91.6285 116.281 91.2692 114.492 91.1387 113.496L90.9607 113.267C90.8222 112.639 90.9285 112.225 91.0155 111.59L91.1875 111.363Z" fill="#333333"/>
<path d="M91.1387 113.496C92.8984 112.859 93.1189 113.464 94.4402 114.139C94.7089 114.277 95.7379 113.888 96.4887 114.361C96.0052 115.388 92.7247 117.105 91.5302 117.28L91.3024 117.145C91.6284 116.281 91.2692 114.493 91.1387 113.496Z" fill="#333333"/>
<path d="M74.6953 181.104C81.7983 185.3 87.9233 186.689 95.7956 188.791C95.6196 189.417 95.3918 190.035 95.1776 190.649C94.6333 191.107 94.6628 191.143 93.6498 190.993C89.6918 190.364 85.2293 189.543 81.4508 188.228C78.9613 187.361 76.4696 183.189 74.8321 181.263L74.6953 181.104Z" fill="#333333"/>
<path d="M173.872 67.7139C175.804 68.2454 176.684 68.9896 178.322 70.1276C178.481 71.4319 184.577 77.7459 185.592 79.1946C186.717 80.7996 187.382 82.8226 188.328 84.5039C187.89 85.5759 188.013 85.6851 186.852 86.2694C186.391 85.1364 186.191 83.6604 185.411 82.6244C183.505 80.0926 177.055 76.2549 174.088 78.4504C174.107 78.0529 173.568 77.4706 173.277 77.0616C175.941 76.0474 178.457 76.6909 181.188 77.1596C179.117 73.6629 176.304 71.0154 173.872 67.7139Z" fill="#333333"/>
<path d="M66.214 128.726C67.085 131.742 66.7773 135.823 67.1605 136.773C69.4263 138.001 70.7678 135.85 72.6455 140.871C72.3248 142.349 72.005 144.029 71.5513 145.455L70.4113 144.657C70.7815 143.378 71.3513 141.662 70.743 140.382C69.906 138.622 68.4125 138.418 66.801 139.313C66.3368 140.093 66.4805 139.876 66.6723 140.985C65.287 142.823 66.5525 142.307 66.3845 143.477C65.3973 145.314 66.0778 147.661 66.5533 149.6C65.423 148.417 65.46 147.731 64.562 146.559C64.3943 144.8 64.678 141.576 64.8055 139.722C63.0285 140.021 61.0135 140.652 59.2505 141.154C59.1958 140.406 59.5085 140.529 59.1348 139.941C60.4558 139.382 62.0563 138.775 63.4423 138.464C64.225 138.924 64.2418 139.298 65.0893 139.619C65.4815 138.939 65.2233 138.234 65.1138 137.306C65.6875 136.365 65.522 133.37 65.5775 132.072C65.736 130.339 65.458 130.419 66.214 128.726Z" fill="#333333"/>
<path d="M101.244 42.0672C111.508 37.08 115.626 37.2035 125.744 42.0997C125.272 42.1217 124.864 42.142 124.395 42.1943L123.973 42.8462L123.794 42.7495C122.055 41.8292 118.706 40.926 116.763 40.4717C112.228 39.4115 106.891 41.5662 102.492 42.9287C101.493 42.558 101.764 42.8045 101.244 42.0672Z" fill="#333333"/>
<path d="M122.492 158.469C126.605 158.145 130.805 158.137 134.925 157.793C136.69 157.646 138.468 157.492 140.232 157.685C139.756 158.328 139.624 158.448 139.61 159.234L128.616 159.913C126.989 159.994 124.724 160.169 123.144 160.141C122.862 162.087 122.748 163.338 121.795 165.104C121.332 165.004 120.677 164.925 120.193 164.851C120.651 162.962 121.41 160.014 122.492 158.469Z" fill="#333333"/>
<path d="M122.492 158.469L122.653 158.556C123.889 159.235 123.985 159.9 125.679 159.84C126.504 159.811 127.829 159.77 128.616 159.913C126.989 159.994 124.724 160.168 123.144 160.141C122.862 162.087 122.748 163.338 121.795 165.104C121.332 165.004 120.677 164.925 120.193 164.85C120.651 162.962 121.41 160.013 122.492 158.469Z" fill="#333333"/>
<path d="M154.815 51.2129C156.693 51.2336 159.241 51.2109 161.002 51.8361C164.932 52.5659 168.072 57.5704 170.442 60.3664C169.031 59.9979 168.139 59.3871 166.938 59.0774C166.578 58.4531 163.188 54.7606 162.468 53.9596C159.689 53.3749 157.259 53.2411 154.449 53.0551L155.709 52.8571C155.447 52.8266 155.026 52.7189 154.754 52.6594C154.446 52.0809 154.621 51.9986 154.815 51.2129Z" fill="#333333"/>
<path d="M154.815 51.2129C156.694 51.2336 159.241 51.2109 161.003 51.8361C160.054 53.2206 157.261 52.8976 155.71 52.8571C155.448 52.8266 155.027 52.7189 154.755 52.6594C154.446 52.0809 154.621 51.9986 154.815 51.2129Z" fill="#333333"/>
<path d="M82.6588 102.073C83.2813 98.9369 86.3868 98.5814 89.0481 97.9424C88.7553 98.6451 88.5301 99.0456 88.5536 99.8204C85.6141 100.285 85.1511 100.451 84.4833 103.412L84.6841 103.506C84.8021 104.62 84.8546 105.181 85.7963 105.928C85.8778 107.534 85.4946 107.603 84.3346 108.679L83.7413 108.577C83.6668 108.171 83.5218 107.825 83.3801 107.438L83.0613 107.537L82.5621 108.605L82.1953 107.153C82.4723 105.878 82.5538 103.477 82.6588 102.073Z" fill="#333333"/>
<path d="M82.6582 102.073C83.2807 98.9369 86.3862 98.5814 89.0475 97.9424C88.7547 98.6451 88.5295 99.0456 88.553 99.8204C85.6135 100.285 85.1505 100.451 84.4827 103.412C83.9615 102.63 84.6667 101.218 84.8912 100.218L84.463 100.19L84.809 100.068L84.8887 100.203L84.4655 100.184C83.7167 100.643 83.2127 101.381 82.6582 102.073Z" fill="#333333"/>
<path d="M70.0566 162.816L71.7916 162.888C73.3391 166.738 75.3464 172.205 79.8814 173.24L79.8216 174.531C73.7359 174.59 71.5901 167.587 70.0566 162.816Z" fill="#333333"/>
<path d="M64.8672 62.1901C66.5339 60.6656 70.8419 56.6359 72.7934 55.7334C71.6352 58.0589 71.0652 59.4006 70.1909 61.8524L76.3462 62.0324L76.0962 62.0751C74.1044 62.4044 71.6802 61.4544 71.2874 63.5739C70.1979 63.4451 70.2534 63.2734 69.4467 63.7116L69.1069 64.4324C68.2457 63.9354 68.1527 63.7509 67.5919 62.9489C66.6352 62.7526 65.7974 62.4789 64.8672 62.1901Z" fill="#333333"/>
<path d="M67.5909 62.9482C68.1516 63.7502 68.2446 63.9347 69.1059 64.4317C67.2904 68.7775 65.1529 75.3425 60.7969 77.47C60.8649 76.7622 60.9224 76.0535 60.9691 75.344C64.9589 71.5695 65.7531 67.8297 67.5909 62.9482Z" fill="#333333"/>
<path d="M44.3942 94.2881C47.2619 95.8873 44.9179 99.3411 43.4514 101.039C42.5259 102.11 40.7302 105.026 39.7734 105.61C40.4312 101.605 41.5054 97.2906 44.3942 94.2881Z" fill="#333333"/>
<path d="M82.5613 108.605L83.0605 107.536L83.3793 107.438C83.521 107.825 83.666 108.17 83.7405 108.577L84.3338 108.679C84.638 109.828 84.6028 111.404 84.6295 112.624C87.0205 111.962 88.491 111.478 91.0153 111.59C90.9283 112.225 90.822 112.639 90.9605 113.267C87.8885 113.42 86.1528 114.107 83.2535 115.009C82.8475 112.782 82.5703 111.24 82.4268 108.993L82.5613 108.605Z" fill="#333333"/>
<path d="M122.534 60.0361C122.881 60.1724 123.43 60.4099 123.77 60.4846C123.445 61.7519 122.875 62.7049 123.075 63.7329C123.621 64.1584 124 64.0894 124.705 64.1139L123.975 64.5176L123.947 64.9361L124.411 65.4296C119.633 65.6474 118.074 68.0574 115.65 68.5419L115.312 68.3091C115.796 65.9216 120.989 64.5529 122.445 60.3036L122.534 60.0361Z" fill="#333333"/>
<path d="M181.235 119.13C182.208 118.143 182.501 117.863 183.652 117.113C182.061 123.434 184.419 123.399 186.306 128.437C186.092 129.108 185.985 129.579 185.6 130.175C182.879 126.424 180.987 123.818 181.235 119.13Z" fill="#333333"/>
<path d="M140.045 174.617C141.445 174.101 142.418 174.23 143.771 174.907C145.539 175.793 149.76 177.732 150.48 179.553C149.403 180.208 148.707 180.382 147.524 180.803C144.799 177.872 143.86 176.454 140.045 174.617Z" fill="#333333"/>
<path d="M53.5869 81.1182C54.5619 80.8179 54.1669 80.8074 55.0862 81.1079C56.1152 83.6207 56.4694 85.2287 55.4469 87.8597C55.3717 88.0534 55.3897 88.0012 55.3622 88.1984L54.1842 89.0499C52.9572 89.2222 50.8004 91.2029 49.6289 92.0192C49.6709 90.9429 49.9627 90.0769 50.2632 89.0557C54.6079 87.1154 55.0719 85.9412 53.5869 81.1182Z" fill="#333333"/>
<path d="M125.743 42.0996C127.325 42.2906 134.235 46.3134 135.924 47.3406C134.514 48.8564 133.691 47.1029 132.33 47.7296C131.779 47.1279 125.141 43.5181 123.973 42.8461L124.394 42.1941C124.864 42.1419 125.271 42.1216 125.743 42.0996Z" fill="#333333"/>
<path d="M135.309 113.015C138.233 115.293 144.951 119.962 147.106 121.93C147.19 122.382 147.384 123.269 147.41 123.688C142.921 121.763 140.352 118.446 136.525 116.406C137.48 116.37 137.7 116.597 138.668 116.507L138.646 116.235L138.772 116.35C137.47 115.502 135.864 114.526 135.309 113.015Z" fill="#333333"/>
<path d="M183.748 145.443L185.189 147.1C183.245 149.968 179.825 154.051 177.065 156.199C176.941 154.312 178.007 153.704 177.827 152.439C179.698 152.148 182.604 147.168 183.748 145.443Z" fill="#333333"/>
<path d="M148.03 148.905C149.291 150.019 151.395 151.368 152.839 152.35C152.639 152.897 152.495 153.334 152.212 153.852C151.152 153.141 150.41 152.591 149.418 151.788C148.825 154.931 147.528 156.543 144.664 157.977C144.752 157.211 144.973 156.702 145.234 155.989C147.062 154.377 147.706 151.173 148.03 148.905Z" fill="#333333"/>
<path d="M41.8379 89.2778C44.8581 86.1218 43.6426 85.1083 48.9176 80.9961C48.6604 82.0728 48.3081 83.2581 48.1056 84.3158L47.8304 84.2486C46.2831 86.1866 45.0191 88.4881 43.5039 90.3068C43.4111 90.1083 42.2449 89.5421 41.8379 89.2778Z" fill="#333333"/>
<path d="M148.073 98.5908C150.729 98.9661 151.601 100.058 152.69 102.359C152.313 103.011 152.345 104.439 152.574 105.144L152.807 105.22C152.427 105.895 151.864 107.473 151.704 107.688C150.728 109.263 150.766 109.486 149.102 110.04C150.189 107.965 151.154 106.062 151.627 103.758C151.458 103.03 151.442 102.642 150.946 102.087C150.009 99.9793 147.927 99.9761 145.902 99.7806C147.345 99.2613 147.259 99.6083 148.073 98.5908Z" fill="#333333"/>
<path d="M76.3459 62.0324C78.3859 62.0179 80.0636 62.1471 81.9799 61.4209C82.2414 63.0294 81.4456 62.2044 81.8016 63.4031C79.7269 64.0451 73.5726 63.8679 71.2871 63.5739C71.6799 61.4544 74.1041 62.4044 76.0959 62.0751L76.3459 62.0324Z" fill="#333333"/>
<path d="M204.391 115.533C204.872 117.473 205.751 122.325 206.651 123.744C206.253 125.097 206.572 126.557 205.765 127.766C205.184 125.891 204.14 121.17 203.33 119.677C203.473 118.596 204.08 116.673 204.391 115.533Z" fill="#333333"/>
<path d="M110.114 186.577C110.742 187.034 111.86 187.126 112.681 187.264C110.131 189.007 107.943 189.602 105.094 190.69C104.927 190.92 104.786 191.115 104.669 191.275C104.619 190.986 103.723 189.611 103.443 189C105.099 188.54 108.798 187.564 110.114 186.577Z" fill="#333333"/>
<path d="M188.327 84.5039C189.119 88.7809 189.279 91.5114 188.602 95.8449C188.01 95.1592 187.734 94.3914 187.297 93.5762C187.203 90.3942 187.568 89.7762 186.852 86.2694C188.012 85.6852 187.889 85.5759 188.327 84.5039Z" fill="#333333"/>
<path d="M35.5192 139.545C37.9079 140.928 41.7874 142.323 43.0959 143.141L43.5722 144.553C40.3237 144.591 37.5817 143.06 35.2949 140.907C35.5024 140.552 35.4847 139.995 35.5192 139.545Z" fill="#333333"/>
<path d="M59.3902 59.2531C60.7839 58.7581 62.2222 57.7806 62.5017 56.2979C62.5412 57.5104 62.5014 58.5781 63.0042 59.6969C61.2502 59.8106 59.6887 63.5876 58.2734 64.6439C57.7077 65.0664 57.1319 65.3156 56.6074 65.6884C57.4904 64.3071 59.9594 60.7716 59.3902 59.2531Z" fill="#333333"/>
<path d="M144.57 105.161C145.472 104.971 146.595 104.649 147.467 104.805C145.446 106.263 144.738 107.585 143.382 109.647C142.975 110.281 142.265 111.578 141.481 111.619C141.324 110.635 141.914 109.087 142.213 108.064C142.85 106.734 143.439 106.056 144.57 105.161Z" fill="#333333"/>
<path d="M88.4966 49.1533C89.6188 49.6108 89.7365 48.6946 90.957 49.5148C89.4928 50.6428 87.6073 53.5393 86.289 55.1961C85.8445 54.9238 85.185 54.6893 84.6855 54.4856C85.8568 52.6253 87.2386 50.9556 88.4966 49.1533Z" fill="#333333"/>
<path d="M154.094 188.53C154.53 188.159 154.931 187.331 155.025 186.736C156.862 188.486 158.941 190.786 161.397 191.446C160.815 191.637 159.489 192.014 159.089 192.4C157.239 191.518 155.588 189.919 154.094 188.53Z" fill="#333333"/>
<path d="M150.291 51.2405C149.999 51.7035 149.229 52.9815 148.638 52.7498C146.752 52.0105 140.233 49.6235 139.094 48.4508L139.198 47.8213C142.609 49.6005 146.489 50.6585 150.291 51.2405Z" fill="#333333"/>
<path d="M183.487 61.0559C182.474 60.5059 176.09 57.6914 175.809 57.3459C178.144 55.8196 182.954 59.0516 185.249 60.0894C184.48 60.0761 184.028 60.0682 183.251 59.9499L183.12 60.2446L183.268 60.4716C183.427 60.7209 183.457 60.7541 183.487 61.0559Z" fill="#333333"/>
<path d="M142.504 73.9424C144.166 74.1641 148.738 74.5506 149.754 75.6394C149.529 76.4044 148.435 76.6366 147.523 77.7016C145.835 76.6881 144.063 75.1889 142.504 73.9424Z" fill="#333333"/>
<path d="M53.1543 81.1358C53.4815 80.1371 54.0848 78.3118 54.5438 77.4293L54.8558 78.1888C55.9933 78.4891 56.7703 77.6238 57.9805 77.3936L59.0728 77.8976L59.2945 78.6138C58.2433 79.1686 55.5321 80.0856 55.1281 80.6473L55.0848 81.1076C54.1656 80.8071 54.5605 80.8175 53.5855 81.1178L53.1543 81.1358Z" fill="#333333"/>
<path d="M63.7053 166.02C63.5025 165.703 63.3053 165.383 63.1133 165.059C61.9723 163.118 60.6815 160.122 61.267 157.853C62.4272 158.341 62.9933 161.147 63.8483 162.288C63.9143 163.851 63.9083 164.475 63.7053 166.02Z" fill="#333333"/>
<path d="M186.126 132.443L186.492 132.049C187.243 132.211 187.235 132.508 187.811 133.279C188.121 134.386 188.062 136.98 188.022 138.203L186.124 138.941C186.352 136.702 186.252 134.68 186.126 132.443Z" fill="#333333"/>
<path d="M94.453 138.396C95.032 139.012 95.6098 139.091 96.4331 139.336C95.8896 140.537 93.8353 145.484 93.0758 145.941L91.8936 145.844C91.9913 145.554 92.7686 144.199 92.9546 143.846C94.1023 141.668 94.199 140.756 94.453 138.396Z" fill="#333333"/>
<path d="M151.136 78.4248C152.893 79.8753 154.488 80.8441 156.42 82.0616C156.131 82.1213 153.356 82.6436 153.326 82.6556C151.728 81.3058 151.683 81.4788 150.061 79.7418C150.68 79.2626 150.743 79.1108 151.136 78.4248Z" fill="#333333"/>
<path d="M99.0586 198.515C102.217 199.141 106.531 198.224 107.42 201.781C105.268 201.079 100.011 200.159 99.0586 198.515Z" fill="#333333"/>
<path d="M87.7207 162.474C88.7977 163.31 97.8497 171.75 98.003 172.122L97.0492 172.315C94.6337 171.043 89.3217 164.88 87.7207 162.474Z" fill="#333333"/>
<path d="M150.947 102.087C151.443 102.642 151.459 103.03 151.627 103.758C150.391 104.09 148.694 104.6 147.468 104.805C146.596 104.649 145.473 104.971 144.57 105.161C146.837 103.038 147.928 102.588 150.947 102.087Z" fill="#333333"/>
<path d="M184.674 105.454C185.064 105.696 186.021 106.439 186.324 106.575C185.804 108.482 185.445 111.108 184.758 112.771C184.347 112.16 183.923 110.774 183.729 110.051C184.011 109.003 184.372 106.75 184.674 105.454Z" fill="#333333"/>
<path d="M62.1377 124.217C64.0087 125.52 65.239 126.532 66.214 128.725C65.458 130.418 65.7359 130.339 65.5774 132.072C65.5519 131.754 65.512 131.438 65.4575 131.124C65.1295 129.237 63.6815 127.713 62.1847 126.628C62.3285 126.069 62.1829 124.848 62.1377 124.217Z" fill="#333333"/>
<path d="M132.008 65.5479C134.093 65.6061 135.294 66.6776 137.074 67.6224L135.954 69.2171C134.232 68.4416 133.431 67.5068 131.137 66.6801L132.008 65.5479Z" fill="#333333"/>
<path d="M69.3901 146.269C70.0121 146.469 70.2331 146.539 70.8091 146.838C70.1569 148.513 69.0829 150.322 68.0946 151.834C67.2991 151.038 67.1699 150.92 66.7441 149.876C67.4749 149.321 68.7709 147.164 69.3901 146.269Z" fill="#333333"/>
<path d="M124.705 64.1133C127.973 64.2703 128.874 64.5208 132.008 65.548L131.137 66.6803C128.151 65.596 127.544 65.5108 124.411 65.429L123.947 64.9355L123.975 64.517L124.705 64.1133Z" fill="#333333"/>
<path d="M157.282 155.134C160.401 156.948 161.401 157.492 164.973 157.733C164.569 158.09 163.763 158.758 163.461 159.153C161.81 158.748 159.858 157.999 158.224 157.421C158.045 156.431 157.594 157.092 157.282 155.134Z" fill="#333333"/>
<path d="M114.559 184.061C116.467 182.609 117.985 180.896 119.996 179.856L120.262 181.574L116.986 184.274C116.594 184.053 115.084 184.076 114.559 184.061Z" fill="#333333"/>
<path d="M83.6103 57.624C83.9161 57.8035 84.7909 58.345 85.0679 58.4473C84.8186 60.5665 84.0003 62.6798 81.8013 63.4028C81.4453 62.204 82.2411 63.029 81.9796 61.4205C82.6999 60.8785 83.2833 58.6073 83.6103 57.624Z" fill="#333333"/>
<path d="M161.082 86.0171C161.777 84.7016 162.161 83.1836 163.725 83.1328C164.579 83.5248 165.184 84.6678 165.724 85.4898C164.243 86.1186 162.674 86.3601 161.082 86.0171Z" fill="#333333"/>
<path d="M87.6953 173.065C89.6261 172.652 90.4556 172.522 92.4253 172.414C93.1476 172.972 93.7486 173.305 94.0796 174.13C92.8931 174.149 90.2931 174.233 89.1966 174.621C88.3838 174 88.2773 173.902 87.6953 173.065Z" fill="#333333"/>
<path d="M115.46 172.082C116.289 172.996 118.501 174.223 119.637 174.856C116.48 174.989 115.17 174.54 112.069 173.999C113.5 173.321 114.16 173.027 115.46 172.082Z" fill="#333333"/>
<path d="M118.975 170.622C117.238 169.069 115.117 168.587 114.322 167.577L114.725 167.377C116.173 167.31 118.666 168.071 120.038 168.603C119.701 169.247 119.329 169.999 118.975 170.622Z" fill="#333333"/>
<path d="M48.8133 118.481C49.65 119.04 51.3488 120.3 52.238 120.472C52.2995 121.321 52.3268 122.079 52.5323 122.908C51.4455 122.588 49.7977 121.439 48.7827 120.795C48.8112 119.864 48.5428 119.545 48.8133 118.481Z" fill="#333333"/>
<path d="M142.644 98.3857C144.684 98.163 146.066 98.1762 148.074 98.5912C147.26 99.6087 147.346 99.2617 145.904 99.781C145.399 99.9272 143.087 99.8665 142.412 99.8655C142.553 99.717 142.742 99.4282 142.868 99.2507L142.644 98.3857Z" fill="#333333"/>
<path d="M122.084 178.001C123.242 178.311 123.259 177.681 124.528 178.325C123.443 179.216 121.063 180.761 120.261 181.575L119.995 179.857C120.27 179.552 121.629 178.428 122.084 178.001Z" fill="#333333"/>
<path d="M154.561 153.444C155.586 154.02 156.344 154.432 157.282 155.134C157.594 157.091 158.045 156.431 158.224 157.421C156.926 156.984 155.695 156.372 154.564 155.601C154.613 155.032 154.568 154.049 154.561 153.444Z" fill="#333333"/>
<path d="M205.221 107.561C205.235 105.702 205.433 103.747 204.862 102.028L204.812 101.88L205.131 101.405C206.446 101.674 206.007 103.985 206.933 104.756C205.986 105.855 205.763 106.207 205.221 107.561Z" fill="#333333"/>
<path d="M180.457 90.7521L180.865 90.3623C181.816 91.4918 185.031 95.2178 185.127 96.5193L185.005 96.2191C184.07 95.9456 181.041 91.7796 180.457 90.7521Z" fill="#333333"/>
<path d="M83.0413 173.477C83.3878 174.342 83.8573 174.203 84.3093 175.006C82.4755 174.955 81.6108 174.831 79.8213 174.531L79.881 173.239C80.9008 173.376 82.0103 173.533 83.0413 173.477Z" fill="#333333"/>
<path d="M172.98 156.689C172.849 157.569 172.544 157.85 172.003 158.532L171.977 158.743L168.418 159.728C168.742 158.907 169.425 158.351 170.064 157.725C171.068 157.659 172.052 157.118 172.98 156.689Z" fill="#333333"/>
<path d="M186.306 128.437C187.035 130.096 187.706 131.43 187.811 133.279C187.235 132.508 187.244 132.211 186.493 132.049L186.126 132.442C185.993 131.559 185.841 131.029 185.6 130.175C185.984 129.579 186.092 129.108 186.306 128.437Z" fill="#333333"/>
<path d="M91.8942 145.844L93.0764 145.941L92.5259 146.876C91.6689 147.212 90.8199 148.104 90.3592 148.88L90.3267 149.53C89.8842 149.934 89.5224 150.189 88.9512 150.105L89.0282 149.343L89.7547 149.003C90.2194 147.789 90.6297 147.365 91.4197 146.329L91.8942 145.844Z" fill="#333333"/>
<path d="M97.0488 172.314L98.0026 172.121C99.0373 173.812 100.317 174.179 100.988 175.715L100.733 175.765C99.5011 175.046 97.9046 173.454 97.0488 172.314Z" fill="#333333"/>
<path d="M60.9699 75.3447C60.9232 76.0542 60.8657 76.763 60.7977 77.4707C60.2887 77.8412 59.7879 78.2225 59.2954 78.6145L59.0737 77.8982L57.9814 77.3942C59.4254 76.7025 59.7444 76.4072 60.9699 75.3447Z" fill="#333333"/>
<path d="M140.293 47.0966C140.368 46.6526 140.435 46.5818 140.615 46.1733C141.869 45.4008 143.655 46.0428 144.813 46.7576C143.025 46.7363 142.044 46.6843 140.293 47.0966Z" fill="#333333"/>
<path d="M36.1602 156.639C37.1224 156.931 38.3599 159.632 38.8874 160.616C37.2667 160.197 36.5724 158.056 36.1602 156.639Z" fill="#333333"/>
<path d="M180.457 90.7522C179.99 89.9657 178.832 89.004 179.025 88.042C180.067 88.9325 180.195 89.1517 180.865 90.3625L180.457 90.7522Z" fill="#333333"/>
<path d="M116.69 24.3012C121.142 23.4812 130.148 22.0494 134.389 22.2969C127.636 24.4377 123.731 24.5644 117.091 25.5537C113.868 26.0354 111.707 26.5222 108.571 27.4064L107.851 26.9192C107.018 26.8784 106.761 26.9064 106.021 26.4627C109.121 25.0387 113.192 24.8027 116.69 24.3012Z" fill="#333333"/>
<path d="M73.7258 39.1223C81.4098 37.1188 87.3965 36.4703 95.0363 34.999C94.7198 35.7965 94.5898 35.8263 93.6728 36.351L93.74 36.5505C88.1913 38.2338 79.6285 39.4975 73.5098 41.1075C73.5615 40.5438 73.6088 40.5085 73.9018 39.9995L73.9828 39.8618L73.7258 39.1223Z" fill="#333333"/>
<path d="M11.3242 122.485L13.091 122.031C14.4402 123.853 25.3565 131.604 28.3325 134.132C27.5825 134.804 27.5502 134.67 26.4865 134.525C24.6205 134.104 12.915 124.395 11.3242 122.485Z" fill="#333333"/>
<path d="M195.049 65.5107C198.032 65.5702 203.179 66.6087 205.724 67.9695C206.747 68.3357 209.184 69.1932 209.954 69.8257L209.555 70.2517L209.605 71.2007C208.692 70.9252 207.963 70.6732 207.07 70.3355L195.234 66.6557C195.231 66.4852 195.086 65.7252 195.049 65.5107Z" fill="#333333"/>
<path d="M205.725 67.9697C206.748 68.336 209.185 69.1935 209.954 69.826L209.556 70.252L209.606 71.201C208.693 70.9255 207.963 70.6735 207.071 70.3357C207.669 69.9335 207.665 69.9377 207.632 69.2727C206.858 68.811 206.438 68.5145 205.725 67.9697Z" fill="#333333"/>
<path d="M227.588 122.702C228.883 127.536 229.528 133.823 227.718 138.575C227.233 138.321 227.095 138.018 226.563 137.789C226.443 136.991 226.915 133.755 226.918 132.466C226.93 129.392 226.688 126.021 226.165 123.004C226.633 122.885 227.115 122.796 227.588 122.702Z" fill="#333333"/>
<path d="M25.0527 103.034C26.424 97.6066 31.4272 97.0129 34.8042 94.1396C34.6317 95.1291 34.5302 95.7844 34.2145 96.7437C30.8922 98.3749 28.5645 99.8469 26.7827 103.174L25.0527 103.034Z" fill="#333333"/>
<path d="M226.563 137.789C227.096 138.018 227.233 138.321 227.718 138.576C226.151 142.947 223.919 146.005 219.019 146.354L218.918 145.707L219.972 144.848C222.492 143.181 225.477 140.724 226.563 137.789Z" fill="#333333"/>
<path d="M211.618 86.885C212.203 86.847 213.227 86.7485 213.774 86.7995C212.311 90.236 209.783 95.2958 209.218 98.8453C208.995 98.4435 208.348 97.5692 208.058 97.1505C208.94 94.1175 210.378 89.6895 211.618 86.885Z" fill="#333333"/>
<path d="M23.2399 110.588C23.7609 110.198 24.5997 109.403 25.1149 108.941C24.6912 112.661 22.5607 116.765 18.3817 116.998C18.4379 116.473 18.2514 116.247 18.0039 115.776C20.9002 114.252 21.5174 113.266 23.2399 110.588Z" fill="#333333"/>
<path d="M213.887 71.5469C214.706 71.8551 215.554 73.0231 215.883 73.7959C217.197 76.8804 215.364 80.2099 214.926 82.8461L213.499 83.3471L213.086 83.0484C214.804 78.8511 216.465 76.7059 213.219 72.9281C213.883 72.2954 213.678 72.6096 213.887 71.5469Z" fill="#333333"/>
<path d="M18.0037 115.775C18.2512 116.246 18.4377 116.472 18.3815 116.997C15.7407 117.721 12.4337 118.397 13.0902 122.031L11.3235 122.485C10.907 120.384 11.21 119.638 12.3127 117.911C14.1105 116.938 16.0532 116.383 18.0037 115.775Z" fill="#333333"/>
<path d="M65.7266 42.7258C67.1593 41.065 71.5261 39.5778 73.7261 39.123L73.9831 39.8625L73.9021 40.0003C73.6091 40.5093 73.5618 40.5445 73.5101 41.1083C70.9086 41.7633 69.9198 41.9613 67.5011 43.1445C68.1153 42.5463 67.9433 42.849 68.1278 41.9833C66.6028 42.2278 66.9321 42.869 65.7266 42.7258Z" fill="#333333"/>
<path d="M25.0527 103.034L26.7827 103.174C25.8685 105.672 25.7697 106.561 25.1152 108.941C24.6 109.403 23.7612 110.197 23.2402 110.588C23.818 108.571 24.791 105.039 25.0527 103.034Z" fill="#333333"/>
<path d="M212.949 145.522C215.099 145.165 217.529 145.233 219.97 144.848L218.917 145.707L219.018 146.354C217.328 146.683 215.212 146.578 213.78 146.95C213.35 146.441 213.233 146.119 212.949 145.522Z" fill="#333333"/>
<path d="M213.087 83.0489L213.5 83.3477L214.926 82.8467C214.568 84.2294 214.264 85.4487 213.775 86.7999C213.228 86.7489 212.204 86.8474 211.618 86.8854C212.106 85.4274 212.455 84.4719 213.087 83.0489Z" fill="#333333"/>
<path d="M209.954 69.8262C210.785 70.1779 212.729 71.0592 213.513 71.2504L213.887 71.5472C213.679 72.6099 213.884 72.2957 213.22 72.9284L211.437 71.8839C210.883 71.7054 210.168 71.4114 209.606 71.2012L209.556 70.2522L209.954 69.8262Z" fill="#333333"/>
<path d="M213.513 71.25L213.888 71.5467C213.68 72.6095 213.884 72.2953 213.22 72.928L211.438 71.8835L211.922 71.3353L213.513 71.25Z" fill="#333333"/>
<path d="M110.379 211.255L111.646 211.065C111.774 213.709 111.972 216.453 111.762 219.083C111.426 217.214 110.434 212.839 110.379 211.255Z" fill="#333333"/>
<path d="M28.3323 134.131C28.9746 134.425 29.7228 134.744 30.3338 135.079L30.2326 137.188C28.5948 136.274 27.9051 135.705 26.4863 134.524C27.5501 134.669 27.5823 134.803 28.3323 134.131Z" fill="#333333"/>
</svg>
