<svg width="16" height="18" viewBox="0 0 16 18" fill="none" xmlns="http://www.w3.org/2000/svg">
<g clip-path="url(#clip0_296_224)">
<path d="M1 8C1 6.34315 2.34315 5 4 5H8C9.65685 5 11 6.34315 11 8V14C11 15.6569 9.65685 17 8 17H4C2.34315 17 1 15.6569 1 14V8Z" fill="#333333"/>
<path d="M5 5V4C5 2.34315 6.34315 1 8 1H12C13.6569 1 15 2.34315 15 4V10C15 11.6569 13.6569 13 12 13H11M4 17H8C9.65685 17 11 15.6569 11 14V8C11 6.34315 9.65685 5 8 5H4C2.34315 5 1 6.34315 1 8V14C1 15.6569 2.34315 17 4 17Z" stroke="#333333" stroke-width="2"/>
</g>
<defs>
<clipPath id="clip0_296_224">
<rect width="16" height="18" fill="white"/>
</clipPath>
</defs>
</svg>
