<svg width="80" height="80" viewBox="0 0 80 80" fill="none" xmlns="http://www.w3.org/2000/svg">
<path d="M38.0416 20C34.6149 23.3557 32.4966 27.9868 32.4966 33.1008C32.4966 43.3464 41.0002 51.652 51.4899 51.652C55.8176 51.652 59.8061 50.2369 63 47.8566C59.7526 55.0098 52.4199 60 43.8926 60C32.3539 60 23 50.8638 23 39.5937C23 30.3076 29.351 22.4716 38.0416 20Z" fill="#333333"/>
<path d="M58.5252 38.6662L59.5084 42.25M44.8423 35.8835L48.8714 39.8188M49.3611 21.9702L47.8863 27.3459M57.1879 40.9416L60.8572 39.9813M44.8423 39.8188L48.8714 35.8835M46.7416 24.1034L50.4108 25.0636M38.0416 20C34.6149 23.3557 32.4966 27.9868 32.4966 33.1008C32.4966 43.3464 41.0002 51.652 51.4899 51.652C55.8176 51.652 59.8061 50.2369 63 47.8566C59.7526 55.0098 52.4199 60 43.8926 60C32.3539 60 23 50.8638 23 39.5937C23 30.3076 29.351 22.4716 38.0416 20Z" stroke="#333333" stroke-width="2" stroke-linecap="round" stroke-linejoin="round"/>
</svg>
